<?xml version='1.0' encoding='utf-8'?>
<svg xmlns="http://www.w3.org/2000/svg" width="1000" height="1000" viewBox="0 0 264.58333 264.58334" version="1.1" id="svg8"> <defs id="defs2"/> <metadata id="metadata5"> </metadata> <g id="layer1" transform="translate(0,-32.41665)"> <g id="g7075" transform="translate(42.105993,42.808222)"> <path style="opacity:1;fill:#8a6f91;fill-opacity:1;stroke:#333333;stroke-width:0;stroke-linecap:butt;stroke-linejoin:miter;stroke-miterlimit:4;stroke-dasharray:none;stroke-dashoffset:0;stroke-opacity:1" d="M 202.97699,89.584254 A 116.98459,116.98459 0 0 1 120.25642,232.86048 116.98459,116.98459 0 0 1 -23.01981,150.13991 116.98459,116.98459 0 0 1 59.700765,6.8636295 116.98459,116.98459 0 0 1 202.97699,89.584254 Z" id="path1266"/> <path style="fill:#67536c;fill-opacity:1;stroke:none;stroke-width:0.26458335px;stroke-linecap:butt;stroke-linejoin:miter;stroke-opacity:1" d="M 100.77634,43.218347 32.383819,113.81653 79.7912,161.22386 53.384162,185.02355 104.19723,235.83666 a 116.98459,116.98459 0 0 0 16.05845,-2.97623 116.98459,116.98459 0 0 0 83.62232,-86.54042 z" id="path1347"/> <path style="opacity:1;fill:#453748;fill-opacity:1;stroke:#333333;stroke-width:0;stroke-linecap:butt;stroke-linejoin:miter;stroke-miterlimit:4;stroke-dasharray:none;stroke-dashoffset:0;stroke-opacity:1" d="M 89.978591,0.85357187 A 119.00853,119.00853 0 0 0 -29.029965,119.86208 119.00853,119.00853 0 0 0 89.978591,238.87064 119.00853,119.00853 0 0 0 208.98715,119.86208 119.00853,119.00853 0 0 0 89.978591,0.85357187 Z m 0,4.04787123 A 114.96062,114.96062 0 0 1 204.93923,119.86208 114.96062,114.96062 0 0 1 89.978591,234.82272 114.96062,114.96062 0 0 1 -24.982045,119.86208 114.96062,114.96062 0 0 1 89.978591,4.9014431 Z" id="path1268"/> <circle style="opacity:1;fill:#441650;fill-opacity:1;stroke:none;stroke-width:0.26499999;stroke-linecap:round;stroke-linejoin:round;stroke-miterlimit:4;stroke-dasharray:none;stroke-dashoffset:0;stroke-opacity:1" id="path1289" cx="65.945564" cy="77.902969" r="49.155701"/> <circle r="23.284281" cy="61.409908" cx="51.716286" id="circle1291" style="opacity:1;fill:#672178;fill-opacity:1;stroke:none;stroke-width:0.26499999;stroke-linecap:round;stroke-linejoin:round;stroke-miterlimit:4;stroke-dasharray:none;stroke-dashoffset:0;stroke-opacity:1"/> <circle r="34.926422" cy="149.78537" cx="128.24092" id="circle1297" style="opacity:1;fill:#441650;fill-opacity:1;stroke:none;stroke-width:0.26499999;stroke-linecap:round;stroke-linejoin:round;stroke-miterlimit:4;stroke-dasharray:none;stroke-dashoffset:0;stroke-opacity:1"/> <circle style="opacity:1;fill:#672178;fill-opacity:1;stroke:none;stroke-width:0.26499999;stroke-linecap:round;stroke-linejoin:round;stroke-miterlimit:4;stroke-dasharray:none;stroke-dashoffset:0;stroke-opacity:1" id="circle1299" cx="118.13062" cy="138.06667" r="16.544094"/> <circle style="opacity:1;fill:#441650;fill-opacity:1;stroke:none;stroke-width:0.26499999;stroke-linecap:round;stroke-linejoin:round;stroke-miterlimit:4;stroke-dasharray:none;stroke-dashoffset:0;stroke-opacity:1" id="circle1303" cx="66.796249" cy="171.45273" r="19.080175"/> <circle r="9.0379772" cy="165.0508" cx="61.273045" id="circle1305" style="opacity:1;fill:#672178;fill-opacity:1;stroke:none;stroke-width:0.26499999;stroke-linecap:round;stroke-linejoin:round;stroke-miterlimit:4;stroke-dasharray:none;stroke-dashoffset:0;stroke-opacity:1"/> <circle r="8.7316055" cy="202.24527" cx="99.221886" id="circle1309" style="opacity:1;fill:#441650;fill-opacity:1;stroke:none;stroke-width:0.26499999;stroke-linecap:round;stroke-linejoin:round;stroke-miterlimit:4;stroke-dasharray:none;stroke-dashoffset:0;stroke-opacity:1"/> <circle style="opacity:1;fill:#672178;fill-opacity:1;stroke:none;stroke-width:0.26499999;stroke-linecap:round;stroke-linejoin:round;stroke-miterlimit:4;stroke-dasharray:none;stroke-dashoffset:0;stroke-opacity:1" id="circle1311" cx="96.694313" cy="199.31551" r="4.136024"/> </g> </g> </svg>