<?xml version="1.0" encoding="UTF-8" standalone="no"?>
<svg
   xmlns:dc="http://purl.org/dc/elements/1.1/"
   xmlns:cc="http://creativecommons.org/ns#"
   xmlns:rdf="http://www.w3.org/1999/02/22-rdf-syntax-ns#"
   xmlns:svg="http://www.w3.org/2000/svg"
   xmlns="http://www.w3.org/2000/svg"
   xmlns:sodipodi="http://sodipodi.sourceforge.net/DTD/sodipodi-0.dtd"
   xmlns:inkscape="http://www.inkscape.org/namespaces/inkscape"
   height="831.70972"
   id="svg8"
   version="1.1"
   viewBox="0 0 220.05654 220.05653"
   width="831.70978"
   sodipodi:docname="type-fighting.svg"
   inkscape:version="0.92.2 5c3e80d, 2017-08-06">
  <metadata
     id="metadata19">
    <rdf:RDF>
      <cc:Work
         rdf:about="">
        <dc:format>image/svg+xml</dc:format>
        <dc:type
           rdf:resource="http://purl.org/dc/dcmitype/StillImage" />
        <dc:title></dc:title>
      </cc:Work>
    </rdf:RDF>
  </metadata>
  <sodipodi:namedview
     pagecolor="#ffffff"
     bordercolor="#666666"
     borderopacity="1"
     objecttolerance="10"
     gridtolerance="10"
     guidetolerance="10"
     inkscape:pageopacity="0"
     inkscape:pageshadow="2"
     inkscape:window-width="640"
     inkscape:window-height="480"
     id="namedview17"
     showgrid="false"
     fit-margin-top="0"
     fit-margin-left="0"
     fit-margin-right="0"
     fit-margin-bottom="0"
     inkscape:zoom="0.236"
     inkscape:cx="436.43651"
     inkscape:cy="432.19379"
     inkscape:window-x="0"
     inkscape:window-y="0"
     inkscape:window-maximized="0"
     inkscape:current-layer="svg8" />
  <defs
     id="defs2" />
  <g
     id="layer1"
     transform="translate(-16.817839,-59.00306)">
    <g
       id="g7075"
       transform="translate(42.105993,42.808222)">
      <path
         style="opacity:1;fill:#ffb380;fill-opacity:1;stroke:#333333;stroke-width:0;stroke-linecap:butt;stroke-linejoin:miter;stroke-miterlimit:4;stroke-dasharray:none;stroke-dashoffset:0;stroke-opacity:1"
         d="M 189.21177,98.22999 A 108.15705,108.15705 0 0 1 112.73323,230.69473 108.15705,108.15705 0 0 1 -19.731518,154.21617 108.15705,108.15705 0 0 1 56.747043,21.751384 108.15705,108.15705 0 0 1 189.21177,98.22999 Z"
         id="path1835"
         inkscape:connector-curvature="0" />
      <path
         style="fill:#ff9955;stroke:none;stroke-width:0.26458335px;stroke-linecap:butt;stroke-linejoin:miter;stroke-opacity:1"
         d="M 82.895284,53.769769 72.605828,71.681091 57.600274,56.675555 53.353686,88.18393 42.510631,77.338571 38.997503,110.36292 28.719726,100.08515 63.089545,201.76271 95.088462,233.76166 a 108.15704,108.15704 0 0 0 17.645078,-3.06702 108.15704,108.15704 0 0 0 77.77474,-82.45344 l -61.46577,-61.465797 -5.0221,8.119476 z"
         id="path2627"
         inkscape:connector-curvature="0" />
      <path
         style="opacity:1;fill:#aa4400;fill-opacity:1;stroke:#333333;stroke-width:0;stroke-linecap:butt;stroke-linejoin:miter;stroke-miterlimit:4;stroke-dasharray:none;stroke-dashoffset:0;stroke-opacity:1"
         d="M 84.740134,16.194839 A 110.02826,110.02826 0 0 0 -25.288153,126.22308 110.02826,110.02826 0 0 0 84.740134,236.25137 110.02826,110.02826 0 0 0 194.7684,126.22308 110.02826,110.02826 0 0 0 84.740134,16.194839 Z m 0,3.742423 A 106.2858,106.2858 0 0 1 191.02594,126.22308 106.2858,106.2858 0 0 1 84.740134,232.5089 106.2858,106.2858 0 0 1 -21.545685,126.22308 106.2858,106.2858 0 0 1 84.740134,19.937262 Z"
         id="path1837"
         inkscape:connector-curvature="0" />
      <rect
         style="opacity:1;fill:#ff6600;fill-opacity:1;stroke:none;stroke-width:1.32291675;stroke-linecap:round;stroke-linejoin:round;stroke-miterlimit:4;stroke-dasharray:none;stroke-dashoffset:0;stroke-opacity:1"
         height="46.043213"
         id="rect2556"
         rx="11.103574"
         ry="9.9751301"
         transform="rotate(-30)"
         width="22.207148"
         x="46.495468"
         y="132.23651" />
      <rect
         style="opacity:1;fill:#ff6600;fill-opacity:1;stroke:none;stroke-width:1.32291663;stroke-linecap:round;stroke-linejoin:round;stroke-miterlimit:4;stroke-dasharray:none;stroke-dashoffset:0;stroke-opacity:1"
         height="72.237831"
         id="rect2548"
         rx="11.103574"
         ry="10.140502"
         transform="rotate(-30)"
         width="22.207148"
         x="-47.150558"
         y="93.180687" />
      <rect
         style="opacity:1;fill:#ff6600;fill-opacity:1;stroke:none;stroke-width:1.32291663;stroke-linecap:round;stroke-linejoin:round;stroke-miterlimit:4;stroke-dasharray:none;stroke-dashoffset:0;stroke-opacity:1"
         height="84.663261"
         id="rect2550"
         rx="11.103574"
         ry="10.089698"
         transform="rotate(-30)"
         width="22.207148"
         x="-23.739046"
         y="80.755249" />
      <rect
         style="opacity:1;fill:#ff6600;fill-opacity:1;stroke:none;stroke-width:1.32291663;stroke-linecap:round;stroke-linejoin:round;stroke-miterlimit:4;stroke-dasharray:none;stroke-dashoffset:0;stroke-opacity:1"
         height="94.973717"
         id="rect2552"
         rx="11.103574"
         ry="10.061381"
         transform="rotate(-30)"
         width="22.207148"
         x="-0.32753941"
         y="70.444817" />
      <rect
         style="opacity:1;fill:#ff6600;fill-opacity:1;stroke:none;stroke-width:1.32291663;stroke-linecap:round;stroke-linejoin:round;stroke-miterlimit:4;stroke-dasharray:none;stroke-dashoffset:0;stroke-opacity:1"
         height="119.41142"
         id="rect2554"
         rx="11.103574"
         ry="10.334183"
         transform="rotate(-30)"
         width="22.207148"
         x="23.083975"
         y="80.755249" />
      <path
         style="fill:#ff6600;fill-opacity:1;stroke:none;stroke-width:0.26458329px;stroke-linecap:butt;stroke-linejoin:miter;stroke-opacity:1"
         d="m 144.29474,112.52061 c 0,0 15.75695,32.00062 6.24813,57.99304 -9.50881,25.99246 -20.05458,-45.73774 -20.05458,-45.73774 z"
         id="path2560"
         inkscape:connector-curvature="0" />
      <path
         style="opacity:1;fill:#ff6600;fill-opacity:1;stroke:none;stroke-width:1.32291663;stroke-linecap:round;stroke-linejoin:round;stroke-miterlimit:4;stroke-dasharray:none;stroke-dashoffset:0;stroke-opacity:1"
         d="m 29.396491,145.21827 25.566517,44.28251 3.806522,6.59308 c 8.605306,14.90483 29.107582,19.06625 45.9691,9.33124 l 29.78878,-17.19856 c 16.86152,-9.735 23.50877,-29.5712 14.90346,-44.47603 l -3.80652,-6.59308 -7.51495,-13.01628 c 1.71034,4.06736 -0.33381,9.16002 -4.90665,11.80014 l -1.54364,0.89122 c -4.89948,2.82872 -10.78679,1.73937 -13.20125,-2.44259 l -17.57653,-30.44344 z"
         id="path2584"
         inkscape:connector-curvature="0" />
      <rect
         style="opacity:1;fill:#ff6600;fill-opacity:1;stroke:none;stroke-width:1.32291663;stroke-linecap:round;stroke-linejoin:round;stroke-miterlimit:4;stroke-dasharray:none;stroke-dashoffset:0;stroke-opacity:1"
         height="15.330393"
         id="rect2601"
         rx="0"
         ry="0"
         transform="rotate(-30)"
         width="12.244549"
         x="40.372826"
         y="168.99962" />
    </g>
  </g>
</svg>
