<?xml version='1.0' encoding='utf-8'?>
<svg xmlns="http://www.w3.org/2000/svg" width="1000" height="1000" viewBox="0 0 264.58333 264.58334" version="1.1" id="svg8"> <defs id="defs2"/> <metadata id="metadata5"> </metadata> <g id="layer1" transform="translate(0,-32.41665)"> <g id="g7075" transform="translate(42.105993,42.808222)"> <path style="opacity:1;fill:#ffe680;fill-opacity:1;stroke:#333333;stroke-width:0;stroke-linecap:butt;stroke-linejoin:miter;stroke-miterlimit:4;stroke-dasharray:none;stroke-dashoffset:0;stroke-opacity:1" d="M 206.56992,121.73299 A 118.08802,118.08802 0 0 1 88.481939,239.82099 118.08802,118.08802 0 0 1 -29.606111,121.73299 118.08802,118.08802 0 0 1 88.481939,3.6449509 118.08802,118.08802 0 0 1 206.56992,121.73299 Z" id="path956"/> <path style="fill:#ffdd55;stroke:none;stroke-width:0.26458332px;stroke-linecap:butt;stroke-linejoin:miter;stroke-opacity:1" d="M 110.45786,39.712661 71.973276,100.42086 102.33248,131.10651 66.505353,203.7529 101.68725,238.93477 A 118.08802,118.08802 0 0 0 205.75631,135.0111 Z" id="path998"/> <path style="opacity:1;fill:#ffcc00;fill-opacity:1;stroke:#333333;stroke-width:0;stroke-linecap:butt;stroke-linejoin:miter;stroke-miterlimit:4;stroke-dasharray:none;stroke-dashoffset:0;stroke-opacity:1" d="M 88.481939,1.6019251 A 120.13105,120.13105 0 0 0 -31.649186,121.73299 120.13105,120.13105 0 0 0 88.481939,241.86406 120.13105,120.13105 0 0 0 208.613,121.73299 120.13105,120.13105 0 0 0 88.481939,1.6019251 Z m 0,4.0860517 A 116.04495,116.04495 0 0 1 204.5269,121.73299 116.04495,116.04495 0 0 1 88.481939,237.77796 116.04495,116.04495 0 0 1 -27.563085,121.73299 116.04495,116.04495 0 0 1 88.481939,5.6879768 Z" id="path958"/> <path style="opacity:1;fill:#ffcc00;fill-opacity:1;stroke:none;stroke-width:0;stroke-linecap:round;stroke-linejoin:round;stroke-miterlimit:4;stroke-dasharray:none;stroke-dashoffset:0;stroke-opacity:1" d="M 110.45913,39.712868 44.37468,101.45759 82.139241,145.40414 66.504682,203.75309 132.58913,142.00833 94.824563,98.061829 Z" id="path982"/> </g> </g> </svg>