<?xml version="1.0" encoding="UTF-8" standalone="no"?>
<svg
   xmlns:dc="http://purl.org/dc/elements/1.1/"
   xmlns:cc="http://creativecommons.org/ns#"
   xmlns:rdf="http://www.w3.org/1999/02/22-rdf-syntax-ns#"
   xmlns:svg="http://www.w3.org/2000/svg"
   xmlns="http://www.w3.org/2000/svg"
   xmlns:sodipodi="http://sodipodi.sourceforge.net/DTD/sodipodi-0.dtd"
   xmlns:inkscape="http://www.inkscape.org/namespaces/inkscape"
   height="857.16565"
   id="svg8"
   version="1.1"
   viewBox="0 0 226.79179 226.79175"
   width="857.16583"
   sodipodi:docname="type-fairy.svg"
   inkscape:version="0.92.2 5c3e80d, 2017-08-06">
  <metadata
     id="metadata17">
    <rdf:RDF>
      <cc:Work
         rdf:about="">
        <dc:format>image/svg+xml</dc:format>
        <dc:type
           rdf:resource="http://purl.org/dc/dcmitype/StillImage" />
        <dc:title></dc:title>
      </cc:Work>
    </rdf:RDF>
  </metadata>
  <sodipodi:namedview
     pagecolor="#ffffff"
     bordercolor="#666666"
     borderopacity="1"
     objecttolerance="10"
     gridtolerance="10"
     guidetolerance="10"
     inkscape:pageopacity="0"
     inkscape:pageshadow="2"
     inkscape:window-width="640"
     inkscape:window-height="480"
     id="namedview15"
     showgrid="false"
     fit-margin-top="0"
     fit-margin-left="0"
     fit-margin-right="0"
     fit-margin-bottom="0"
     inkscape:zoom="0.236"
     inkscape:cx="408.15232"
     inkscape:cy="415.2233"
     inkscape:window-x="0"
     inkscape:window-y="0"
     inkscape:window-maximized="0"
     inkscape:current-layer="svg8" />
  <defs
     id="defs2" />
  <g
     id="layer1"
     transform="translate(-24.301366,-47.777739)">
    <g
       id="g7075"
       transform="translate(42.105993,42.808222)">
      <path
         style="opacity:1;fill:#ffd5f6;fill-opacity:1;stroke:#333333;stroke-width:0;stroke-linecap:butt;stroke-linejoin:miter;stroke-miterlimit:4;stroke-dasharray:none;stroke-dashoffset:0;stroke-opacity:1"
         d="M 203.26046,89.515499 A 111.46739,111.46739 0 0 1 124.44114,226.03456 111.46739,111.46739 0 0 1 -12.077921,147.21524 111.46739,111.46739 0 0 1 66.741401,10.69613 111.46739,111.46739 0 0 1 203.26046,89.515499 Z"
         id="path1442"
         inkscape:connector-curvature="0" />
      <path
         style="fill:#ffaaee;stroke:none;stroke-width:0.26458332px;stroke-linecap:butt;stroke-linejoin:miter;stroke-opacity:1"
         d="M 127.78552,42.230215 40.037557,192.4995 75.384704,227.84663 A 111.46738,111.46738 0 0 0 124.44171,226.0339 111.46738,111.46738 0 0 0 206.9633,121.408 Z"
         id="path993"
         inkscape:connector-curvature="0" />
      <path
         style="opacity:1;fill:#d35f8d;fill-opacity:1;stroke:#333333;stroke-width:0;stroke-linecap:butt;stroke-linejoin:miter;stroke-miterlimit:4;stroke-dasharray:none;stroke-dashoffset:0;stroke-opacity:1"
         d="M 95.59127,4.9695178 A 113.39587,113.39587 0 0 0 -17.804626,118.36537 113.39587,113.39587 0 0 0 95.59127,231.76126 113.39587,113.39587 0 0 0 208.98717,118.36537 113.39587,113.39587 0 0 0 95.59127,4.9695178 Z m 0,3.8569662 A 109.53886,109.53886 0 0 1 205.13015,118.36537 109.53886,109.53886 0 0 1 95.59127,227.90425 109.53886,109.53886 0 0 1 -13.947613,118.36537 109.53886,109.53886 0 0 1 95.59127,8.826484 Z"
         id="path1444"
         inkscape:connector-curvature="0" />
      <path
         style="opacity:1;fill:#ffdbe9;fill-opacity:1;stroke:none;stroke-width:0.26499999;stroke-linecap:round;stroke-linejoin:round;stroke-miterlimit:4;stroke-dasharray:none;stroke-dashoffset:0;stroke-opacity:1"
         d="m 178.5907,113.34675 -3.28367,-2.2813 -0.0845,3.99745 -1.31563,-3.7757 -2.41799,3.18436 1.15494,-3.82792 -3.82791,1.15494 3.18435,-2.41799 -3.7757,-1.31563 3.99746,-0.0845 -2.2813,-3.28366 3.28366,2.2813 0.0845,-3.99746 1.31563,3.7757 2.41799,-3.18435 -1.15494,3.82791 3.82792,-1.15494 -3.18436,2.41799 3.7757,1.31563 -3.99745,0.0845 z"
         id="path1481"
         inkscape:connector-curvature="0" />
      <path
         style="opacity:1;fill:#ffdbe9;fill-opacity:1;stroke:none;stroke-width:0.26499999;stroke-linecap:round;stroke-linejoin:round;stroke-miterlimit:4;stroke-dasharray:none;stroke-dashoffset:0;stroke-opacity:1"
         d="m 138.2241,127.52116 -3.28366,-2.2813 -0.0845,3.99746 -1.31563,-3.7757 -2.41799,3.18435 1.15494,-3.82791 -3.82791,1.15494 3.18435,-2.418 -3.7757,-1.31562 3.99745,-0.0845 -2.2813,-3.28367 3.28367,2.2813 0.0845,-3.99745 1.31563,3.7757 2.41799,-3.18436 -1.15494,3.82792 3.82791,-1.15494 -3.18435,2.41799 3.7757,1.31563 -3.99746,0.0845 z"
         id="path1513"
         inkscape:connector-curvature="0" />
      <path
         style="opacity:1;fill:#ffdbe9;fill-opacity:1;stroke:none;stroke-width:0.26499999;stroke-linecap:round;stroke-linejoin:round;stroke-miterlimit:4;stroke-dasharray:none;stroke-dashoffset:0;stroke-opacity:1"
         d="m 153.93939,162.95749 -3.28366,-2.2813 -0.0845,3.99745 -1.31563,-3.7757 -2.41799,3.18436 1.15493,-3.82792 -3.82791,1.15494 3.18436,-2.41799 -3.7757,-1.31563 3.99745,-0.0845 -2.2813,-3.28366 3.28367,2.2813 0.0845,-3.99746 1.31562,3.7757 2.41799,-3.18435 -1.15493,3.82791 3.82791,-1.15494 -3.18435,2.418 3.7757,1.31562 -3.99746,0.0845 z"
         id="path1515"
         inkscape:connector-curvature="0" />
      <path
         style="opacity:1;fill:#ffdbe9;fill-opacity:1;stroke:none;stroke-width:0.26499999;stroke-linecap:round;stroke-linejoin:round;stroke-miterlimit:4;stroke-dasharray:none;stroke-dashoffset:0;stroke-opacity:1"
         d="m 129.59617,207.63791 -3.28367,-2.2813 -0.0845,3.99745 -1.31563,-3.7757 -2.41799,3.18436 1.15494,-3.82792 -3.82791,1.15494 3.18435,-2.41799 -3.7757,-1.31563 3.99746,-0.0845 -2.2813,-3.28366 3.28366,2.2813 0.0845,-3.99746 1.31563,3.7757 2.41799,-3.18435 -1.15494,3.82791 3.82792,-1.15494 -3.18436,2.418 3.7757,1.31562 -3.99745,0.0845 z"
         id="path1518"
         inkscape:connector-curvature="0" />
      <path
         style="opacity:1;fill:#ffdbe9;fill-opacity:1;stroke:none;stroke-width:0.26499999;stroke-linecap:round;stroke-linejoin:round;stroke-miterlimit:4;stroke-dasharray:none;stroke-dashoffset:0;stroke-opacity:1"
         d="m 114.80546,177.74827 -3.28367,-2.2813 -0.0845,3.99746 -1.31563,-3.7757 -2.41799,3.18435 1.15494,-3.82791 -3.82791,1.15494 3.18435,-2.41799 -3.7757,-1.31563 3.99746,-0.0845 -2.2813,-3.28367 3.28366,2.2813 0.0845,-3.99745 1.31563,3.7757 2.41799,-3.18435 -1.15494,3.82791 3.82791,-1.15494 -3.18435,2.41799 3.7757,1.31563 -3.99745,0.0845 z"
         id="path1520"
         inkscape:connector-curvature="0" />
      <path
         style="opacity:1;fill:#ff80b2;fill-opacity:1;stroke:none;stroke-width:0.26499999;stroke-linecap:round;stroke-linejoin:round;stroke-miterlimit:4;stroke-dasharray:none;stroke-dashoffset:0;stroke-opacity:1"
         d="M 127.78552,42.230215 99.354695,68.22961 66.138071,48.708398 82.079548,83.783506 53.249114,109.34236 l 34.668263,-3.91435 -48.284249,83.63378 0.01233,0.007 a 2.9184323,2.9184323 0 0 0 -0.387592,1.44442 2.9184323,2.9184323 0 0 0 2.917713,2.92011 2.9184323,2.9184323 0 0 0 2.518091,-1.44922 l 0.01233,0.005 48.284248,-83.63379 13.943382,31.98166 7.72037,-37.74727 38.34671,-3.731392 -33.51514,-19.006037 z"
         id="path983"
         inkscape:connector-curvature="0" />
    </g>
  </g>
</svg>
