<?xml version="1.0" encoding="UTF-8" standalone="no"?>
<svg
   xmlns:dc="http://purl.org/dc/elements/1.1/"
   xmlns:cc="http://creativecommons.org/ns#"
   xmlns:rdf="http://www.w3.org/1999/02/22-rdf-syntax-ns#"
   xmlns:svg="http://www.w3.org/2000/svg"
   xmlns="http://www.w3.org/2000/svg"
   xmlns:sodipodi="http://sodipodi.sourceforge.net/DTD/sodipodi-0.dtd"
   xmlns:inkscape="http://www.inkscape.org/namespaces/inkscape"
   height="947.67535"
   id="svg8"
   version="1.1"
   viewBox="0 0 250.73915 250.73911"
   width="947.67554"
   sodipodi:docname="type-grass.svg"
   inkscape:version="0.92.2 5c3e80d, 2017-08-06">
  <metadata
     id="metadata13">
    <rdf:RDF>
      <cc:Work
         rdf:about="">
        <dc:format>image/svg+xml</dc:format>
        <dc:type
           rdf:resource="http://purl.org/dc/dcmitype/StillImage" />
        <dc:title></dc:title>
      </cc:Work>
    </rdf:RDF>
  </metadata>
  <sodipodi:namedview
     pagecolor="#ffffff"
     bordercolor="#666666"
     borderopacity="1"
     objecttolerance="10"
     gridtolerance="10"
     guidetolerance="10"
     inkscape:pageopacity="0"
     inkscape:pageshadow="2"
     inkscape:window-width="640"
     inkscape:window-height="480"
     id="namedview11"
     showgrid="false"
     fit-margin-top="0"
     fit-margin-left="0"
     fit-margin-right="0"
     fit-margin-bottom="0"
     inkscape:zoom="0.236"
     inkscape:cx="481.69142"
     inkscape:cy="474.62024"
     inkscape:window-x="0"
     inkscape:window-y="0"
     inkscape:window-maximized="0"
     inkscape:current-layer="svg8" />
  <defs
     id="defs2" />
  <g
     id="layer1"
     transform="translate(-4.8441455,-39.545817)">
    <g
       id="g7075"
       transform="translate(42.105993,42.808222)">
      <path
         style="opacity:1;fill:#5aa02c;fill-opacity:1;stroke:#333333;stroke-width:0;stroke-linecap:butt;stroke-linejoin:miter;stroke-miterlimit:4;stroke-dasharray:none;stroke-dashoffset:0;stroke-opacity:1"
         d="M 211.34514,122.10715 A 123.23741,123.23741 0 0 1 88.107755,245.34453 123.23741,123.23741 0 0 1 -35.129681,122.10715 123.23741,123.23741 0 0 1 88.107755,-1.1302899 123.23741,123.23741 0 0 1 211.34514,122.10715 Z"
         id="path1615"
         inkscape:connector-curvature="0" />
      <path
         style="fill:#447821;stroke:none;stroke-width:0.26458332px;stroke-linecap:butt;stroke-linejoin:miter;stroke-opacity:1"
         d="m 115.37324,30.658128 -44.07789,145.501462 -8.775122,35.3081 33.59139,33.59139 A 123.2374,123.2374 0 0 0 211.1304,126.41528 Z"
         id="path1136"
         inkscape:connector-curvature="0" />
      <path
         style="opacity:1;fill:#2d5016;fill-opacity:1;stroke:#333333;stroke-width:0;stroke-linecap:butt;stroke-linejoin:miter;stroke-miterlimit:4;stroke-dasharray:none;stroke-dashoffset:0;stroke-opacity:1"
         d="M 88.107755,-3.2624046 A 125.36953,125.36953 0 0 0 -37.261847,122.10715 125.36953,125.36953 0 0 0 88.107755,247.4767 125.36953,125.36953 0 0 0 213.47731,122.10715 125.36953,125.36953 0 0 0 88.107755,-3.2624046 Z m 0,4.2642295 A 121.10525,121.10525 0 0 1 209.21303,122.10715 121.10525,121.10525 0 0 1 88.107755,243.21242 121.10525,121.10525 0 0 1 -32.997566,122.10715 121.10525,121.10525 0 0 1 88.107755,1.0018249 Z"
         id="path1617"
         inkscape:connector-curvature="0" />
      <path
         style="opacity:1;fill:#005500;fill-opacity:1;stroke:none;stroke-width:2.64583325;stroke-linecap:round;stroke-linejoin:round;stroke-miterlimit:4;stroke-dasharray:none;stroke-dashoffset:0;stroke-opacity:1"
         d="m 115.37324,30.658128 c 0,0 -74.478422,44.999663 -82.760821,75.909982 -4.222613,15.75902 -1.499515,31.72698 6.257298,44.70601 -0.0041,-0.005 -0.149046,-0.19162 -0.149046,-0.19162 l 0.48174,0.73725 c 0.601563,0.98191 1.230611,1.94534 1.889699,2.89044 l 24.265328,37.0727 -4.125398,15.39971 0.01063,0.003 a 4.2565574,4.1888056 0 0 0 -0.165016,1.14181 4.2565574,4.1888056 0 0 0 4.255815,4.18662 4.2565574,4.1888056 0 0 0 4.096121,-3.06611 l 0.01063,0.005 4.14403,-15.46626 39.18597,-19.7886 c 1.21479,-0.55876 2.40446,-1.16674 3.57712,-1.80719 l 0.6574,-0.33269 c 0,0 -0.26241,0.1082 -0.27148,0.11174 13.22903,-7.35581 23.58852,-19.83242 27.81582,-35.60884 8.2824,-30.91033 -35.96487,-80.566099 -29.17586,-105.902968 z"
         id="path1099"
         inkscape:connector-curvature="0" />
      <path
         style="fill:#112b00;stroke:none;stroke-width:0.26458335px;stroke-linecap:butt;stroke-linejoin:miter;stroke-opacity:1"
         d="m 103.35359,56.465959 c 0,0 -33.4147,74.434221 -32.17253,129.283501"
         id="path928"
         inkscape:connector-curvature="0" />
    </g>
  </g>
</svg>
