<?xml version='1.0' encoding='utf-8'?>
<svg xmlns="http://www.w3.org/2000/svg" width="1000" height="1000" viewBox="0 0 264.58333 264.58334" version="1.1" id="svg8"> <defs id="defs2"/> <metadata id="metadata5"> </metadata> <g id="layer1" transform="translate(0,-32.41665)"> <g id="g7075" transform="translate(42.105993,42.808222)"> <path id="path2894" d="M 212.56959,88.884871 A 126.91557,126.91557 0 0 1 122.82676,244.324 126.91557,126.91557 0 0 1 -32.612373,154.58117 126.91557,126.91557 0 0 1 57.130459,-0.85801416 126.91557,126.91557 0 0 1 212.56959,88.884871 Z" style="opacity:1;fill:#9393ac;fill-opacity:1;stroke:#333333;stroke-width:0;stroke-linecap:butt;stroke-linejoin:miter;stroke-miterlimit:4;stroke-dasharray:none;stroke-dashoffset:0;stroke-opacity:1"/> <path style="fill:#6f6f91;stroke:none;stroke-width:0.26458329px;stroke-linecap:butt;stroke-linejoin:miter;stroke-opacity:1" d="m 108.61681,28.594751 -7.96529,7.173198 -22.034773,7.203271 -14.910956,19.121119 -2.850624,20.787622 -5.207875,7.263633 10.133432,10.133376 -4.78303,2.65058 9.990889,9.99086 -1.088169,1.08268 18.466021,18.466 0.712653,2.96575 6.449528,6.44956 -3.404301,13.97351 -8.815006,7.76249 -7.661044,2.96845 -6.619478,-6.61944 -4.684347,2.6615 -6.191881,-6.18912 -8.990429,3.97163 -8.349043,2.19829 -10.810445,7.52126 0.416639,9.88949 -6.186396,4.81864 5.265425,5.26817 -2.269536,1.08268 10.736431,10.7337 -0.597531,0.66333 -4.010059,-4.01008 -4.363638,3.72228 -1.293751,7.29922 36.205663,36.20296 a 126.91556,126.91556 0 0 0 58.920201,-1.47741 126.91556,126.91556 0 0 0 93.11673,-136.745 l -49.75436,-49.754313 -0.48517,0.814078 -20.50257,-20.505337 -6.02468,5.939722 -14.77116,-14.771149 -9.12748,5.953407 z" id="path7011"/> <path id="path2898" d="M 89.978609,-7.3783264 A 129.11132,129.11132 0 0 0 -39.132739,121.73297 129.11132,129.11132 0 0 0 89.978609,250.84432 129.11132,129.11132 0 0 0 219.08996,121.73297 129.11132,129.11132 0 0 0 89.978609,-7.3783264 Z m 0,4.3915002 A 124.71977,124.71977 0 0 1 214.6984,121.73297 124.71977,124.71977 0 0 1 89.978609,246.45276 124.71977,124.71977 0 0 1 -34.741185,121.73297 124.71977,124.71977 0 0 1 89.978609,-2.9868262 Z" style="opacity:1;fill:#373748;fill-opacity:1;stroke:#333333;stroke-width:0;stroke-linecap:butt;stroke-linejoin:miter;stroke-miterlimit:4;stroke-dasharray:none;stroke-dashoffset:0;stroke-opacity:1"/> <path style="opacity:1;fill:#212178;fill-opacity:1;stroke:#212178;stroke-width:0;stroke-linecap:round;stroke-linejoin:round;stroke-miterlimit:4;stroke-dasharray:none;stroke-dashoffset:0;stroke-opacity:1" d="m 102.03016,26.141698 a 9.4728422,9.4728422 0 0 0 -0.6688,0.04243 9.4728422,9.4728422 0 0 0 -7.674756,5.438111 9.4728422,9.4728422 0 0 0 -8.710849,-1.15943 9.4728422,9.4728422 0 0 0 -6.112393,7.524013 9.4728422,9.4728422 0 0 0 -8.691663,1.715832 9.4728422,9.4728422 0 0 0 -3.412528,8.582027 9.4728422,9.4728422 0 0 0 -6.825061,4.391076 9.4728422,9.4728422 0 0 0 -0.39468,9.278247 9.4728422,9.4728422 0 0 0 -5.048894,6.424838 9.4728422,9.4728422 0 0 0 2.587487,8.79032 8.7363586,8.736287 56.813135 0 0 -3.549582,8.675221 8.7363586,8.736287 56.813135 0 0 6.10144,6.81135 8.7363586,8.736287 37.9549 0 0 0.01644,8.458707 8.7363586,8.736287 37.9549 0 0 7.551414,4.47053 8.7363586,8.736287 18.864819 0 0 2.702612,8.41755 8.7363586,8.736287 18.864819 0 0 8.321632,1.84743 8.7363586,8.736287 22.211951 0 0 2.35176,7.95709 l 0.0028,-0.003 a 8.7363586,8.736287 22.211951 0 0 7.41436,2.47788 7.3993936,7.3993331 58.303988 0 0 -1.027865,5.02147 7.3993936,7.3993331 58.303988 0 0 5.150308,5.93967 7.3993936,7.3993331 74.468204 0 0 -4.714489,5.96438 7.3993936,7.3993331 74.468204 0 0 2.088627,6.159 7.3993331,7.3993936 18.260951 0 0 -6.145289,2.49978 7.3993331,7.3993936 18.260951 0 0 -1.66103,6.39747 7.3993331,7.3993936 48.521415 0 0 -6.54547,-0.92371 l -0.0028,-0.003 a 7.3993331,7.3993936 48.521415 0 0 -4.667893,4.71998 6.6011307,6.6010506 11.492399 0 0 -4.4678,-3.77707 6.6011307,6.6010506 11.492399 0 0 -5.679327,1.24164 6.6011307,6.6010506 11.492399 0 0 -4.67063,-4.31156 6.6011307,6.6010506 11.492399 0 0 -5.704001,1.2636 6.6010506,6.6011307 78.167518 0 0 -6.238472,-2.38739 6.6010506,6.6011307 78.167518 0 0 -5.150309,4.37463 6.6010506,6.6011307 48.020111 0 0 -6.85521,0.9566 v -0.003 a 6.6010506,6.6011307 48.020111 0 0 -2.277746,6.26312 5.7977939,5.7978645 21.108694 0 0 -5.32848,3.52767 5.7977939,5.7978645 21.108694 0 0 1.315673,6.44404 5.7978645,5.7977939 80.505772 0 0 -2.88351,5.7999 5.7978645,5.7977939 80.505772 0 0 3.968942,4.75017 4.6350188,4.6349126 51.19423 0 0 0.734584,4.99134 4.6350188,4.6349126 51.19423 0 0 3.944267,1.54043 3.8833449,3.8832558 34.547185 0 0 1.825511,3.4838 3.8833449,3.8832558 34.547185 0 0 3.165823,0.41638 2.9977299,2.9976286 71.326305 0 0 -0.13149,2.83145 2.9977299,2.9976286 71.326305 0 0 1.513014,1.45274 2.2014899,2.2015913 40.161055 0 0 -1.016908,0.96753 2.2014899,2.2015913 40.161055 0 0 -0.07394,1.89129 1.875821,1.8759098 68.906555 0 0 -1.137512,0.24399 1.875821,1.8759098 68.906555 0 0 -0.888076,1.2417 1.2929207,1.2928498 22.976194 0 0 -0.797629,-0.49594 v 0.003 a 1.2929207,1.2928498 22.976194 0 0 -0.918235,0.17557 0.98909953,0.98902835 55.666926 0 0 -0.235716,-0.65782 0.98909953,0.98902835 55.666926 0 0 -1.395155,-0.10979 l 1.137512,1.33208 a 1.2929207,1.2928498 22.976194 0 0 -0.096,0.29597 l 2.365471,0.436 a 1.875821,1.8759098 68.906555 0 0 0.153502,0.3453 l 3.239836,-1.894 a 1.875821,1.8759098 68.906555 0 0 -0.200072,-0.27688 l 1.751476,-3.33301 a 2.9977299,2.9976286 71.326305 0 0 0.597537,-0.20845 l -2.414805,-5.04343 a 3.8833449,3.8832558 34.547185 0 0 0.731853,-0.85794 l -4.950227,-3.07809 a 4.6350188,4.6349126 51.19423 0 0 0.372774,-0.29067 l -4.769318,-5.41069 -1.384197,-10.45412 3.067165,-7.21154 a 6.6010506,6.6011307 48.020111 0 0 0.139764,0.18352 l 8.743744,-7.23892 8.272287,-1.38422 10.30884,2.53819 a 6.6011307,6.6010506 11.492399 0 0 -0.139764,0.48798 l 12.304279,3.02881 a 7.3993331,7.3993936 48.521415 0 0 0.161723,0.56739 l 13.444533,-4.51445 a 7.3993331,7.3993936 18.260951 0 0 0.120563,0.11245 l 0.191851,-0.21907 0.271359,-0.0907 a 7.3993331,7.3993936 48.521415 0 0 -0.06036,-0.15329 l 9.086365,-10.38829 a 7.3993936,7.3993331 74.468204 0 0 0.257674,0.0424 l 1.899504,-14.67525 a 7.3993936,7.3993331 74.468204 0 0 -0.389217,-0.0318 L 93.143912,122.861 a 7.3993936,7.3993331 58.303988 0 0 -0.959353,0.22489 L 80.60117,111.4532 a 8.7363586,8.736287 22.211951 0 0 -0.197367,0.21906 l -9.703081,-8.667 -7.677493,-13.773446 -1.751492,-9.651021 a 9.4728422,9.4728422 0 0 0 0.40566,0.103961 L 65.797103,61.194085 72.978485,49.627106 83.49838,41.088944 97.123806,36.10858 111.69489,34.710677 h 0.003 l 15.39063,3.607178 a 9.4728422,9.4728422 0 0 0 -7.06353,-11.383349 9.4728422,9.4728422 0 0 0 -9.77434,3.60442 9.4728422,9.4728422 0 0 0 -8.22021,-4.393834 z" id="path6831"/> <path style="color:#000000;font-style:normal;font-variant:normal;font-weight:normal;font-stretch:normal;font-size:medium;line-height:normal;font-family:sans-serif;font-variant-ligatures:normal;font-variant-position:normal;font-variant-caps:normal;font-variant-numeric:normal;font-variant-alternates:normal;font-feature-settings:normal;text-indent:0;text-align:start;text-decoration:none;text-decoration-line:none;text-decoration-style:solid;text-decoration-color:#000000;letter-spacing:normal;word-spacing:normal;text-transform:none;writing-mode:lr-tb;direction:ltr;text-orientation:mixed;dominant-baseline:auto;baseline-shift:baseline;text-anchor:start;white-space:normal;shape-padding:0;clip-rule:nonzero;display:inline;overflow:visible;visibility:visible;opacity:1;isolation:auto;mix-blend-mode:normal;color-interpolation:sRGB;color-interpolation-filters:linearRGB;solid-color:#000000;solid-opacity:1;vector-effect:none;fill:#161650;fill-opacity:1;fill-rule:evenodd;stroke:none;stroke-width:1.85208333;stroke-linecap:round;stroke-linejoin:round;stroke-miterlimit:4;stroke-dasharray:none;stroke-dashoffset:0;stroke-opacity:1;color-rendering:auto;image-rendering:auto;shape-rendering:auto;text-rendering:auto;enable-background:accumulate" d="M 132.65701,38.337003 C 122.17165,32.452285 109.80072,30.18599 97.889929,32.295866 73.173274,36.674159 54.203906,60.282199 59.006583,85.804976 c 2.18668,11.620815 9.546317,21.559004 19.300716,27.382724 6.442023,3.57843 11.711516,9.14729 14.220687,16.60171 0.456685,1.35764 0.728999,2.75242 0.963389,4.14857 2.053705,12.23201 -4.219488,25.35167 -16.439298,29.24925 -5.794655,1.84811 -12.163004,0.96593 -17.183892,-2.0012 -5.117582,-2.91175 -11.203327,-4.06784 -17.449628,-2.57224 -2.826942,0.67692 -5.456198,1.9576 -7.773784,3.64346 -6.434598,4.68084 -10.303217,12.67576 -8.074899,21.0078 1.227057,4.58839 4.435842,8.58738 8.573752,10.7302 1.648311,1.14574 3.010464,2.65249 3.484229,4.70678 0.08911,0.38667 0.03183,0.81031 0.04774,1.22143 0.04243,1.2182 -0.12836,2.47326 -0.674632,3.49054 -0.730484,1.36078 -1.768502,2.2262 -3.258008,2.4905 -0.705714,0.12571 -1.668148,-0.0477 -2.28295,-0.41319 -0.615544,-0.36174 -0.849986,-0.68062 -0.906157,-1.25437 -0.0024,-0.0371 0.03713,-0.17239 0.06895,-0.29226 a 3.1009793,3.1009793 0 0 0 -0.237095,-6.17862 c -2.097093,-0.0737 -3.930465,1.16617 -4.862984,2.54694 -0.932519,1.38072 -1.304179,2.91127 -1.146063,4.525 0.263085,2.68702 1.958231,4.83758 3.935133,6.0021 1.976318,1.16553 4.268073,1.57379 6.518721,1.17428 3.484653,-0.61862 6.164511,-2.92782 7.638157,-5.67181 0.517153,-0.95978 0.737327,-2.02713 0.995585,-3.07751 0.478963,-1.95022 0.672564,-3.96192 0.212165,-5.9594 -0.903823,-3.91975 -3.265221,-6.92204 -6.317694,-8.87614 -2.717677,-1.27813 -4.980895,-3.72541 -5.793965,-6.76568 -1.744369,-6.52259 2.275047,-13.00487 8.203206,-15.87287 0.991236,-0.47949 2.019441,-0.88605 3.100475,-1.1449 4.553383,-1.09026 9.011609,-0.15222 12.843895,2.00894 6.531981,3.82635 14.776825,4.81732 22.231247,2.4398 13.802669,-4.40222 21.392719,-17.8241 21.0532,-31.40241 -0.08328,-3.32813 -0.507074,-6.66416 -1.589859,-9.88079 C 95.373386,118.79926 89.077915,112.10942 81.403955,107.82735 73.189928,102.90183 66.948666,94.491335 65.098958,84.661671 60.97818,62.762675 77.493539,42.20732 98.97351,38.402297 c 10.42633,-1.846897 21.39431,0.145864 30.6532,5.342265 a 3.1009797,3.1009797 0 1 0 3.03226,-5.407983 z" id="path3009"/> <path style="opacity:1;fill:#212178;fill-opacity:1;stroke:none;stroke-width:1.85208321;stroke-linecap:round;stroke-linejoin:round;stroke-miterlimit:4;stroke-dasharray:none;stroke-dashoffset:0;stroke-opacity:1" d="m 140.26141,36.272371 a 7.475101,7.475101 0 0 0 -5.96438,2.987657 l -2.76018,-1.592512 c -0.47365,-0.273162 -0.96964,-0.396749 -1.47464,-0.438651 l 0.003,0.0053 c -0.50495,-0.04243 -1.01719,-0.0053 -1.52124,0.03713 -1.59103,0.142681 -3.09511,0.764059 -3.95799,2.258551 l -1.61718,2.806785 a 11.577123,14.15335 0 0 1 0.0685,0.02122 15.990166,15.990166 0 0 0 -0.72363,1.184094 15.990166,15.990166 0 0 0 -0.6962,1.43901 15.990166,15.990166 0 0 0 -0.54821,1.502076 15.990166,15.990166 0 0 0 -0.39744,1.548646 15.990166,15.990166 0 0 0 -0.23847,1.581532 15.990166,15.990166 0 0 0 -0.0794,1.59527 15.990166,15.990166 0 0 0 0.0355,1.13206 15.990166,15.990166 0 0 0 0.19461,1.586996 15.990166,15.990166 0 0 0 0.35087,1.556867 15.990166,15.990166 0 0 0 0.50437,1.518519 15.990166,15.990166 0 0 0 0.65235,1.455453 15.990166,15.990166 0 0 0 0.79489,1.386924 15.990166,15.990166 0 0 0 0.92919,1.302004 15.990166,15.990166 0 0 0 1.05528,1.200537 15.990166,15.990166 0 0 0 1.16766,1.088195 15.990166,15.990166 0 0 0 1.27181,0.970284 15.990166,15.990166 0 0 0 1.36502,0.836037 15.990166,15.990166 0 0 0 0.25762,0.126238 11.577123,14.15335 0 0 1 -0.0164,0.02122 l 23.67663,13.669323 c 2.44154,1.409573 5.53876,0.574915 6.94839,-1.866629 l 7.5706,-13.110108 c 1.40963,-2.441438 0.58035,-5.541595 -1.86113,-6.951167 l -13.01693,-7.513033 -5.09549,-2.941086 a 7.475101,7.475101 0 0 0 0.60027,-2.930107 7.475101,7.475101 0 0 0 -7.4774,-7.474631 z" id="path3020"/> </g> </g> </svg>