<?xml version="1.0" encoding="UTF-8" standalone="no"?>
<svg
   xmlns:dc="http://purl.org/dc/elements/1.1/"
   xmlns:cc="http://creativecommons.org/ns#"
   xmlns:rdf="http://www.w3.org/1999/02/22-rdf-syntax-ns#"
   xmlns:svg="http://www.w3.org/2000/svg"
   xmlns="http://www.w3.org/2000/svg"
   xmlns:sodipodi="http://sodipodi.sourceforge.net/DTD/sodipodi-0.dtd"
   xmlns:inkscape="http://www.inkscape.org/namespaces/inkscape"
   height="888.27808"
   id="svg8"
   version="1.1"
   viewBox="0 0 235.02367 235.02358"
   width="888.27844"
   sodipodi:docname="type-water.svg"
   inkscape:version="0.92.2 5c3e80d, 2017-08-06">
  <metadata
     id="metadata13">
    <rdf:RDF>
      <cc:Work
         rdf:about="">
        <dc:format>image/svg+xml</dc:format>
        <dc:type
           rdf:resource="http://purl.org/dc/dcmitype/StillImage" />
        <dc:title></dc:title>
      </cc:Work>
    </rdf:RDF>
  </metadata>
  <sodipodi:namedview
     pagecolor="#ffffff"
     bordercolor="#666666"
     borderopacity="1"
     objecttolerance="10"
     gridtolerance="10"
     guidetolerance="10"
     inkscape:pageopacity="0"
     inkscape:pageshadow="2"
     inkscape:window-width="640"
     inkscape:window-height="480"
     id="namedview11"
     showgrid="false"
     fit-margin-top="0"
     fit-margin-left="0"
     fit-margin-right="0"
     fit-margin-bottom="0"
     inkscape:zoom="0.236"
     inkscape:cx="440.67913"
     inkscape:cy="422.29423"
     inkscape:window-x="0"
     inkscape:window-y="0"
     inkscape:window-maximized="0"
     inkscape:current-layer="svg8" />
  <defs
     id="defs2" />
  <g
     id="layer1"
     transform="translate(-15.695314,-41.416763)">
    <g
       id="g7075"
       transform="translate(42.105993,42.808222)">
      <path
         style="opacity:1;fill:#0044aa;fill-opacity:1;stroke:#333333;stroke-width:0;stroke-linecap:butt;stroke-linejoin:miter;stroke-miterlimit:4;stroke-dasharray:none;stroke-dashoffset:0;stroke-opacity:1"
         d="M 206.61446,116.1203 A 115.5133,115.5133 0 0 1 91.10118,231.63358 115.5133,115.5133 0 0 1 -24.412149,116.1203 115.5133,115.5133 0 0 1 91.10118,0.60702255 115.5133,115.5133 0 0 1 206.61446,116.1203 Z"
         id="path1589"
         inkscape:connector-curvature="0" />
      <path
         style="fill:#003380;stroke:none;stroke-width:0.26458332px;stroke-linecap:butt;stroke-linejoin:miter;stroke-opacity:1"
         d="M 91.10197,32.191139 47.870773,182.16687 97.124245,231.42033 a 115.5133,115.5133 0 0 0 105.901325,-87.3056 z"
         id="path1610"
         inkscape:connector-curvature="0" />
      <path
         style="opacity:1;fill:#002255;fill-opacity:1;stroke:#333333;stroke-width:0;stroke-linecap:butt;stroke-linejoin:miter;stroke-miterlimit:4;stroke-dasharray:none;stroke-dashoffset:0;stroke-opacity:1"
         d="M 91.10118,-1.3914584 A 117.51179,117.51179 0 0 0 -26.410678,116.1203 117.51179,117.51179 0 0 0 91.10118,233.63211 117.51179,117.51179 0 0 0 208.61299,116.1203 117.51179,117.51179 0 0 0 91.10118,-1.3914584 Z m 0,3.9969619 A 113.51478,113.51478 0 0 1 204.61598,116.1203 113.51478,113.51478 0 0 1 91.10118,229.6351 113.51478,113.51478 0 0 1 -22.413668,116.1203 113.51478,113.51478 0 0 1 91.10118,2.6055035 Z"
         id="path1591"
         inkscape:connector-curvature="0" />
      <path
         style="opacity:1;fill:#0066ff;fill-opacity:1;stroke:none;stroke-width:2.64583349;stroke-linecap:round;stroke-linejoin:round;stroke-miterlimit:4;stroke-dasharray:none;stroke-dashoffset:0;stroke-opacity:1"
         d="m 152.29596,138.85468 c 0,33.79694 -27.39783,61.19477 -61.19478,61.19479 -33.796955,2e-5 -61.194832,-27.39783 -61.194832,-61.19479 0,-33.79696 61.194832,-106.663553 61.194832,-106.663553 0,0 61.19478,72.866613 61.19478,106.663553 z"
         id="path1601"
         inkscape:connector-curvature="0" />
      <path
         style="opacity:1;fill:#2a7fff;fill-opacity:1;stroke:none;stroke-width:2.64583349;stroke-linecap:round;stroke-linejoin:round;stroke-miterlimit:4;stroke-dasharray:none;stroke-dashoffset:0;stroke-opacity:1"
         d="m 130.67484,140.10322 c 0,25.92152 -21.01357,46.93506 -46.93512,46.93507 -25.921501,0 -46.935023,-21.01354 -46.935023,-46.93507 0,-25.92151 46.935023,-81.808582 46.935023,-81.808582 0,0 46.93512,55.887082 46.93512,81.808582 z"
         id="path1604"
         inkscape:connector-curvature="0" />
    </g>
  </g>
</svg>
