<?xml version="1.0" encoding="UTF-8" standalone="no"?>
<svg
   xmlns:dc="http://purl.org/dc/elements/1.1/"
   xmlns:cc="http://creativecommons.org/ns#"
   xmlns:rdf="http://www.w3.org/1999/02/22-rdf-syntax-ns#"
   xmlns:svg="http://www.w3.org/2000/svg"
   xmlns="http://www.w3.org/2000/svg"
   xmlns:sodipodi="http://sodipodi.sourceforge.net/DTD/sodipodi-0.dtd"
   xmlns:inkscape="http://www.inkscape.org/namespaces/inkscape"
   height="927.87634"
   id="svg8"
   version="1.1"
   viewBox="0 0 245.50071 245.50062"
   width="927.87671"
   sodipodi:docname="type-dark.svg"
   inkscape:version="0.92.2 5c3e80d, 2017-08-06">
  <metadata
     id="metadata12">
    <rdf:RDF>
      <cc:Work
         rdf:about="">
        <dc:format>image/svg+xml</dc:format>
        <dc:type
           rdf:resource="http://purl.org/dc/dcmitype/StillImage" />
        <dc:title></dc:title>
      </cc:Work>
    </rdf:RDF>
  </metadata>
  <sodipodi:namedview
     pagecolor="#ffffff"
     bordercolor="#666666"
     borderopacity="1"
     objecttolerance="10"
     gridtolerance="10"
     guidetolerance="10"
     inkscape:pageopacity="0"
     inkscape:pageshadow="2"
     inkscape:window-width="640"
     inkscape:window-height="480"
     id="namedview10"
     showgrid="false"
     fit-margin-top="0"
     fit-margin-left="0"
     fit-margin-right="0"
     fit-margin-bottom="0"
     inkscape:zoom="0.236"
     inkscape:cx="467.54939"
     inkscape:cy="463.30656"
     inkscape:window-x="0"
     inkscape:window-y="0"
     inkscape:window-maximized="0"
     inkscape:current-layer="svg8" />
  <defs
     id="defs2" />
  <g
     id="layer1"
     transform="translate(-8.5858915,-41.790897)">
    <g
       id="g7075"
       transform="translate(42.105993,42.808222)">
      <path
         style="opacity:1;fill:#333333;fill-opacity:1;stroke:#333333;stroke-width:0;stroke-linecap:butt;stroke-linejoin:miter;stroke-miterlimit:4;stroke-dasharray:none;stroke-dashoffset:0;stroke-opacity:1"
         d="M 209.89299,121.73296 A 120.66273,120.66273 0 0 1 89.230281,242.39567 120.66273,120.66273 0 0 1 -31.43248,121.73296 120.66273,120.66273 0 0 1 89.230281,1.0702466 120.66273,120.66273 0 0 1 209.89299,121.73296 Z"
         id="path1433"
         inkscape:connector-curvature="0" />
      <path
         style="fill:#252525;fill-opacity:1;stroke:none;stroke-width:0.26458329px;stroke-linecap:butt;stroke-linejoin:miter;stroke-opacity:1"
         d="m 116.51146,33.895558 2.1317,2.350563 3.08539,3.502386 6.33764,11.174284 3.08545,15.510569 -12.4981,24.339504 -56.79652,-56.79652 -2.837839,3.187069 -3.335615,4.753238 -4.669841,9.339697 -25.01706,91.729172 12.943724,45.76296 53.531257,53.53127 A 120.66273,120.66273 0 0 0 209.62961,127.01371 Z"
         id="path1533"
         inkscape:connector-curvature="0" />
      <path
         style="opacity:1;fill:#000000;fill-opacity:1;stroke:#333333;stroke-width:0;stroke-linecap:butt;stroke-linejoin:miter;stroke-miterlimit:4;stroke-dasharray:none;stroke-dashoffset:0;stroke-opacity:1"
         d="M 89.230281,-1.0173241 A 122.75031,122.75031 0 0 0 -33.520101,121.73296 122.75031,122.75031 0 0 0 89.230281,244.48329 122.75031,122.75031 0 0 0 211.98061,121.73296 122.75031,122.75031 0 0 0 89.230281,-1.0173241 Z m 0,4.1751413 A 118.57512,118.57512 0 0 1 207.80542,121.73296 118.57512,118.57512 0 0 1 89.230281,240.3081 118.57512,118.57512 0 0 1 -29.344909,121.73296 118.57512,118.57512 0 0 1 89.230281,3.1578172 Z"
         id="path1435"
         inkscape:connector-curvature="0" />
      <path
         style="opacity:1;fill:#000000;fill-opacity:1;stroke:none;stroke-width:2.64583325;stroke-linecap:round;stroke-linejoin:round;stroke-miterlimit:4;stroke-dasharray:none;stroke-dashoffset:0;stroke-opacity:1"
         d="M 116.51197,33.894625 A 36.365546,36.365546 0 0 1 125.59436,57.875989 36.365546,36.365546 0 0 1 89.230281,94.240121 36.365546,36.365546 0 0 1 52.866099,57.875989 36.365546,36.365546 0 0 1 61.858079,33.976495 C 36.156659,57.521485 18.087527,108.8395 18.087527,138.42857 c 0,39.29101 31.851728,71.14269 71.142754,71.14272 39.290979,-3e-5 71.142709,-31.85171 71.142709,-71.14272 0,-29.62415 -18.11104,-81.027058 -43.86102,-104.533945 z M 40.716012,134.65428 77.196481,171.13475 a 25.793919,25.793919 0 0 1 -36.480469,0 25.793919,25.793919 0 0 1 0,-36.48047 z m 97.028488,0 a 25.793919,25.793919 0 0 1 0,36.48047 25.793919,25.793919 0 0 1 -36.48047,0 z"
         id="path1517"
         inkscape:connector-curvature="0" />
    </g>
  </g>
</svg>
