<?xml version="1.0" encoding="UTF-8" standalone="no"?>
<svg
   xmlns:dc="http://purl.org/dc/elements/1.1/"
   xmlns:cc="http://creativecommons.org/ns#"
   xmlns:rdf="http://www.w3.org/1999/02/22-rdf-syntax-ns#"
   xmlns:svg="http://www.w3.org/2000/svg"
   xmlns="http://www.w3.org/2000/svg"
   xmlns:sodipodi="http://sodipodi.sourceforge.net/DTD/sodipodi-0.dtd"
   xmlns:inkscape="http://www.inkscape.org/namespaces/inkscape"
   height="874.13617"
   id="svg8"
   version="1.1"
   viewBox="0 0 231.28192 231.28187"
   width="874.13641"
   sodipodi:docname="type-psychic.svg"
   inkscape:version="0.92.2 5c3e80d, 2017-08-06">
  <metadata
     id="metadata15">
    <rdf:RDF>
      <cc:Work
         rdf:about="">
        <dc:format>image/svg+xml</dc:format>
        <dc:type
           rdf:resource="http://purl.org/dc/dcmitype/StillImage" />
        <dc:title></dc:title>
      </cc:Work>
    </rdf:RDF>
  </metadata>
  <sodipodi:namedview
     pagecolor="#ffffff"
     bordercolor="#666666"
     borderopacity="1"
     objecttolerance="10"
     gridtolerance="10"
     guidetolerance="10"
     inkscape:pageopacity="0"
     inkscape:pageshadow="2"
     inkscape:window-width="640"
     inkscape:window-height="480"
     id="namedview13"
     showgrid="false"
     fit-margin-top="0"
     fit-margin-left="0"
     fit-margin-right="0"
     fit-margin-bottom="0"
     inkscape:zoom="0.236"
     inkscape:cx="450.57871"
     inkscape:cy="446.33599"
     inkscape:window-x="0"
     inkscape:window-y="0"
     inkscape:window-maximized="0"
     inkscape:current-layer="svg8" />
  <defs
     id="defs2" />
  <g
     id="layer1"
     transform="translate(-13.076049,-51.519513)">
    <g
       id="g7075"
       transform="translate(42.105993,42.808222)">
      <path
         style="opacity:1;fill:#c837ab;fill-opacity:1;stroke:#333333;stroke-width:0;stroke-linecap:butt;stroke-linejoin:miter;stroke-miterlimit:4;stroke-dasharray:none;stroke-dashoffset:0;stroke-opacity:1"
         d="M 196.41189,94.931153 A 113.67427,113.67427 0 0 1 116.03207,234.15308 113.67427,113.67427 0 0 1 -23.189858,153.77326 113.67427,113.67427 0 0 1 57.189965,14.551282 113.67427,113.67427 0 0 1 196.41189,94.931153 Z"
         id="path1352"
         inkscape:connector-curvature="0" />
      <path
         style="fill:#a02c89;stroke:none;stroke-width:0.26458332px;stroke-linecap:butt;stroke-linejoin:miter;stroke-opacity:1"
         d="M 5.018187,124.35258 115.03225,234.36664 a 113.67427,113.67427 0 0 0 0.99918,-0.2136 113.67427,113.67427 0 0 0 80.576,-81.39597 l -28.40451,-28.40449 z"
         id="path1391"
         inkscape:connector-curvature="0" />
      <path
         style="opacity:1;fill:#782167;fill-opacity:1;stroke:#333333;stroke-width:0;stroke-linecap:butt;stroke-linejoin:miter;stroke-miterlimit:4;stroke-dasharray:none;stroke-dashoffset:0;stroke-opacity:1"
         d="M 86.611017,8.7112917 A 115.64094,115.64094 0 0 0 -29.029943,124.3522 115.64094,115.64094 0 0 0 86.611017,239.99316 115.64094,115.64094 0 0 0 202.25198,124.3522 115.64094,115.64094 0 0 0 86.611017,8.7112917 Z m 0,3.9333283 A 111.70757,111.70757 0 0 1 198.3186,124.3522 111.70757,111.70757 0 0 1 86.611017,236.05979 111.70757,111.70757 0 0 1 -25.096568,124.3522 111.70757,111.70757 0 0 1 86.611017,12.64462 Z"
         id="path1354"
         inkscape:connector-curvature="0" />
      <path
         style="opacity:1;fill:#de87cd;fill-opacity:1;stroke:none;stroke-width:0.26499996;stroke-linecap:round;stroke-linejoin:round;stroke-miterlimit:4;stroke-dasharray:none;stroke-dashoffset:0;stroke-opacity:1"
         d="m 85.059235,73.71406 c -3.012207,0 -6.314447,0.615791 -9.790754,1.664185 -4.671403,1.226688 -9.080043,3.10057 -13.121498,5.525728 C 35.348293,94.872101 5.0182819,124.3522 5.0182819,124.3522 c 0,0 30.3300111,29.48011 57.1287011,43.44819 4.056325,2.43409 8.481972,4.31467 13.172521,5.54112 3.457446,1.03865 6.742298,1.64879 9.739731,1.64879 0.520396,0 1.035091,-0.0237 1.551782,-0.038 0.516643,0.019 1.031385,0.038 1.551781,0.038 2.997433,0 6.282237,-0.61014 9.739684,-1.64879 4.690548,-1.22645 9.116148,-3.10703 13.172568,-5.54112 26.79864,-13.96808 57.12865,-43.44819 57.12865,-43.44819 0,0 -30.33001,-29.480099 -57.12865,-43.448227 -4.04145,-2.425158 -8.45019,-4.29904 -13.121498,-5.525728 -3.476354,-1.048394 -6.778546,-1.664185 -9.790754,-1.664185 -0.520396,0 -1.035138,0.02375 -1.551781,0.03801 -0.516691,-0.019 -1.031386,-0.03801 -1.551782,-0.03801 z"
         id="path1373"
         inkscape:connector-curvature="0" />
      <circle
         style="opacity:1;fill:#a02c89;fill-opacity:1;stroke:none;stroke-width:0.26499996;stroke-linecap:round;stroke-linejoin:round;stroke-miterlimit:4;stroke-dasharray:none;stroke-dashoffset:0;stroke-opacity:1"
         cx="86.611023"
         cy="124.35214"
         id="path1379"
         r="36.218998" />
      <circle
         style="opacity:1;fill:#501644;fill-opacity:1;stroke:none;stroke-width:0.26499996;stroke-linecap:round;stroke-linejoin:round;stroke-miterlimit:4;stroke-dasharray:none;stroke-dashoffset:0;stroke-opacity:1"
         cx="86.611023"
         cy="124.35214"
         id="circle1381"
         r="14.887566" />
      <circle
         style="opacity:0.5;fill:#eed7f4;fill-opacity:1;stroke:none;stroke-width:0.26499996;stroke-linecap:round;stroke-linejoin:round;stroke-miterlimit:4;stroke-dasharray:none;stroke-dashoffset:0;stroke-opacity:1"
         cx="65.279587"
         cy="101.90972"
         id="circle1383"
         r="10.443517" />
    </g>
  </g>
</svg>
