<?xml version='1.0' encoding='utf-8'?>
<svg xmlns="http://www.w3.org/2000/svg" width="1000" height="1000" viewBox="0 0 264.58333 264.58334" version="1.1" id="svg8"> <defs id="defs2"/> <metadata id="metadata5"> </metadata> <g id="layer1" transform="translate(0,-32.41665)"> <g id="g7075" transform="translate(42.105993,42.808222)"> <path id="path1835" d="M 189.21177,98.22999 A 108.15705,108.15705 0 0 1 112.73323,230.69473 108.15705,108.15705 0 0 1 -19.731518,154.21617 108.15705,108.15705 0 0 1 56.747043,21.751384 108.15705,108.15705 0 0 1 189.21177,98.22999 Z" style="opacity:1;fill:#ffb380;fill-opacity:1;stroke:#333333;stroke-width:0;stroke-linecap:butt;stroke-linejoin:miter;stroke-miterlimit:4;stroke-dasharray:none;stroke-dashoffset:0;stroke-opacity:1"/> <path style="fill:#ff9955;stroke:none;stroke-width:0.26458335px;stroke-linecap:butt;stroke-linejoin:miter;stroke-opacity:1" d="M 82.895284,53.769769 72.605828,71.681091 57.600274,56.675555 53.353686,88.18393 42.510631,77.338571 38.997503,110.36292 28.719726,100.08515 63.089545,201.76271 95.088462,233.76166 a 108.15704,108.15704 0 0 0 17.645078,-3.06702 108.15704,108.15704 0 0 0 77.77474,-82.45344 l -61.46577,-61.465797 -5.0221,8.119476 z" id="path2627"/> <path id="path1837" d="M 84.740134,16.194839 A 110.02826,110.02826 0 0 0 -25.288153,126.22308 110.02826,110.02826 0 0 0 84.740134,236.25137 110.02826,110.02826 0 0 0 194.7684,126.22308 110.02826,110.02826 0 0 0 84.740134,16.194839 Z m 0,3.742423 A 106.2858,106.2858 0 0 1 191.02594,126.22308 106.2858,106.2858 0 0 1 84.740134,232.5089 106.2858,106.2858 0 0 1 -21.545685,126.22308 106.2858,106.2858 0 0 1 84.740134,19.937262 Z" style="opacity:1;fill:#aa4400;fill-opacity:1;stroke:#333333;stroke-width:0;stroke-linecap:butt;stroke-linejoin:miter;stroke-miterlimit:4;stroke-dasharray:none;stroke-dashoffset:0;stroke-opacity:1"/> <rect style="opacity:1;fill:#ff6600;fill-opacity:1;stroke:none;stroke-width:1.32291675;stroke-linecap:round;stroke-linejoin:round;stroke-miterlimit:4;stroke-dasharray:none;stroke-dashoffset:0;stroke-opacity:1" id="rect2556" width="22.207148" height="46.043213" x="46.495468" y="132.23651" rx="11.103574" ry="9.9751301" transform="rotate(-30)"/> <rect style="opacity:1;fill:#ff6600;fill-opacity:1;stroke:none;stroke-width:1.32291663;stroke-linecap:round;stroke-linejoin:round;stroke-miterlimit:4;stroke-dasharray:none;stroke-dashoffset:0;stroke-opacity:1" id="rect2548" width="22.207148" height="72.237831" x="-47.150558" y="93.180687" rx="11.103574" ry="10.140502" transform="rotate(-30)"/> <rect ry="10.089698" rx="11.103574" y="80.755249" x="-23.739046" height="84.663261" width="22.207148" id="rect2550" style="opacity:1;fill:#ff6600;fill-opacity:1;stroke:none;stroke-width:1.32291663;stroke-linecap:round;stroke-linejoin:round;stroke-miterlimit:4;stroke-dasharray:none;stroke-dashoffset:0;stroke-opacity:1" transform="rotate(-30)"/> <rect style="opacity:1;fill:#ff6600;fill-opacity:1;stroke:none;stroke-width:1.32291663;stroke-linecap:round;stroke-linejoin:round;stroke-miterlimit:4;stroke-dasharray:none;stroke-dashoffset:0;stroke-opacity:1" id="rect2552" width="22.207148" height="94.973717" x="-0.32753941" y="70.444817" rx="11.103574" ry="10.061381" transform="rotate(-30)"/> <rect ry="10.334183" rx="11.103574" y="80.755249" x="23.083975" height="119.41142" width="22.207148" id="rect2554" style="opacity:1;fill:#ff6600;fill-opacity:1;stroke:none;stroke-width:1.32291663;stroke-linecap:round;stroke-linejoin:round;stroke-miterlimit:4;stroke-dasharray:none;stroke-dashoffset:0;stroke-opacity:1" transform="rotate(-30)"/> <path style="fill:#ff6600;fill-opacity:1;stroke:none;stroke-width:0.26458329px;stroke-linecap:butt;stroke-linejoin:miter;stroke-opacity:1" d="m 144.29474,112.52061 c 0,0 15.75695,32.00062 6.24813,57.99304 -9.50881,25.99246 -20.05458,-45.73774 -20.05458,-45.73774 z" id="path2560"/> <path style="opacity:1;fill:#ff6600;fill-opacity:1;stroke:none;stroke-width:1.32291663;stroke-linecap:round;stroke-linejoin:round;stroke-miterlimit:4;stroke-dasharray:none;stroke-dashoffset:0;stroke-opacity:1" d="m 29.396491,145.21827 25.566517,44.28251 3.806522,6.59308 c 8.605306,14.90483 29.107582,19.06625 45.9691,9.33124 l 29.78878,-17.19856 c 16.86152,-9.735 23.50877,-29.5712 14.90346,-44.47603 l -3.80652,-6.59308 -7.51495,-13.01628 c 1.71034,4.06736 -0.33381,9.16002 -4.90665,11.80014 l -1.54364,0.89122 c -4.89948,2.82872 -10.78679,1.73937 -13.20125,-2.44259 l -17.57653,-30.44344 z" id="path2584"/> <rect style="opacity:1;fill:#ff6600;fill-opacity:1;stroke:none;stroke-width:1.32291663;stroke-linecap:round;stroke-linejoin:round;stroke-miterlimit:4;stroke-dasharray:none;stroke-dashoffset:0;stroke-opacity:1" id="rect2601" width="12.244549" height="15.330393" x="40.372826" y="168.99962" rx="0" ry="0" transform="rotate(-30)"/> </g> </g> </svg>