<?xml version='1.0' encoding='utf-8'?>
<svg xmlns="http://www.w3.org/2000/svg" width="1000" height="1000" viewBox="0 0 264.58333 264.58334" version="1.1" id="svg8"> <defs id="defs2"/> <metadata id="metadata5"> </metadata> <g id="layer1" transform="translate(0,-32.41665)"> <g id="g7075" transform="translate(42.105993,42.808222)"> <path style="opacity:1;fill:#999999;fill-opacity:1;stroke:#333333;stroke-width:0;stroke-linecap:butt;stroke-linejoin:miter;stroke-miterlimit:4;stroke-dasharray:none;stroke-dashoffset:0;stroke-opacity:1" d="M 189.60598,117.99121 A 103.74329,103.74329 0 0 1 85.862658,221.73449 103.74329,103.74329 0 0 1 -17.88064,117.99121 103.74329,103.74329 0 0 1 85.862658,14.247931 103.74329,103.74329 0 0 1 189.60598,117.99121 Z" id="path1419"/> <path id="path2543" d="m 113.47915,42.694484 -23.411355,0.721451 -28.999234,5.778339 -22.407596,12.979418 -6.286942,10.747846 6.186119,10.949493 -6.186119,10.951734 5.881412,11.355035 -5.780577,12.26916 5.475858,11.05257 -5.171151,11.45809 5.372798,11.55892 -5.171152,9.83595 3.228619,14.20947 44.93616,44.93616 a 103.74329,103.74329 0 0 0 4.716327,0.23526 A 103.74329,103.74329 0 0 0 189.56547,118.7808 Z" style="fill:#808080;fill-opacity:1;stroke:none;stroke-width:0.26458332px;stroke-linecap:butt;stroke-linejoin:miter;stroke-opacity:1"/> <path style="opacity:1;fill:#666666;fill-opacity:1;stroke:#333333;stroke-width:0;stroke-linecap:butt;stroke-linejoin:miter;stroke-miterlimit:4;stroke-dasharray:none;stroke-dashoffset:0;stroke-opacity:1" d="M 85.862645,12.45306 A 105.53815,105.53815 0 0 0 -19.675511,117.99119 105.53815,105.53815 0 0 0 85.862645,223.52936 105.53815,105.53815 0 0 0 191.40083,117.99119 105.53815,105.53815 0 0 0 85.862645,12.45306 Z m 0,3.589699 A 101.94841,101.94841 0 0 1 187.81109,117.99119 101.94841,101.94841 0 0 1 85.862645,219.93961 101.94841,101.94841 0 0 1 -16.085769,117.99119 101.94841,101.94841 0 0 1 85.862645,16.042759 Z" id="path1421"/> <path id="path1491" d="M 32.781867,89.758658 87.972539,144.94933 86.003542,66.952852 Z" style="fill:#808080;stroke:none;stroke-width:0.26458329px;stroke-linecap:butt;stroke-linejoin:miter;stroke-opacity:1"/> <path id="path2272" d="m 111.1628,41.509868 -6e-4,0.0045 c -8.60182,-1.113341 -18.421463,-1.084078 -28.746442,0.271909 -15.01816,1.972385 -28.287548,6.38192 -37.816986,12.114832 -4.76473,2.866403 -8.611816,6.062431 -11.25015,9.607167 -1.870427,2.513059 -3.116454,5.271314 -3.502882,8.116539 l -0.01774,-0.0023 c -0.538538,4.080836 0.890396,8.10804 3.526504,11.654474 0.340739,0.458412 0.703748,0.909836 1.084275,1.356698 -0.377948,0.443682 -0.738547,0.89206 -1.077259,1.347146 -1.880492,2.52646 -3.131954,5.299156 -3.510961,8.160657 l -0.01774,-0.0023 c -0.538551,4.080845 0.890385,8.10804 3.526493,11.65447 0.340139,0.4576 0.702564,0.90811 1.08235,1.35419 -0.378685,0.44444 -0.740468,0.89319 -1.07977,1.34907 -1.880508,2.52658 -3.132034,5.29914 -3.510961,8.16066 l -0.01774,-0.002 c -0.53855,4.08085 0.890384,8.10805 3.526492,11.65449 0.341948,0.46003 0.706121,0.91333 1.088136,1.36172 -0.376782,0.44247 -0.736689,0.8892 -1.074443,1.34299 -1.88051,2.5266 -3.131967,5.29917 -3.510974,8.16067 l -0.0091,-0.001 c -0.538551,4.08084 0.890385,8.10804 3.526493,11.65447 0.34348,0.4621 0.710305,0.9167 1.094202,1.36705 -0.375307,0.44094 -0.73285,0.88694 -1.069411,1.33914 -1.880508,2.52659 -3.131965,5.29916 -3.510972,8.16066 l -0.01774,-0.002 c -0.538551,4.08084 0.890385,8.10803 3.526492,11.65448 2.636111,3.54641 6.48154,6.7459 11.244444,9.61531 9.525829,5.7389 22.792689,10.15628 37.809579,12.1381 0.280832,0.0371 0.559332,0.068 0.838623,0.10142 a 2.8678844,2.8678844 45 0 0 0.192048,0.0346 2.8678844,2.8678844 45 0 0 3.218462,-2.468 2.8678844,2.8678844 45 0 0 -2.468001,-3.21846 l 0.01421,-0.005 c -0.348826,-0.0426 -0.695465,-0.0802 -1.045501,-0.1264 -14.347195,-1.89345 -26.986315,-6.18178 -35.596847,-11.36925 -4.305265,-2.59371 -7.591669,-5.40922 -9.604764,-8.11751 -2.013107,-2.7083 -2.750433,-5.17098 -2.444545,-7.48896 0.217373,-1.72601 0.998964,-3.53744 2.445426,-5.48085 0.18504,-0.24862 0.39186,-0.49788 0.598195,-0.7482 1.791023,1.48161 3.801832,2.89304 6.020536,4.22969 9.525818,5.7389 22.792687,10.15629 37.809577,12.13812 15.01689,1.98183 28.966652,1.1563 39.655162,-1.91485 5.34421,-1.53554 9.88804,-3.62784 13.35394,-6.36898 3.46588,-2.74113 5.89956,-6.25856 6.43813,-10.33941 0.15288,-1.15116 0.17978,-2.31587 0.0261,-3.48593 -0.48552,-3.69692 -2.53676,-6.92309 -5.49166,-9.5386 2.92955,-2.60595 4.96008,-5.81843 5.4452,-9.49416 l -0.0114,-0.001 c 0.15288,-1.15116 0.17978,-2.31587 0.0261,-3.48593 -0.48458,-3.68977 -2.52747,-6.91201 -5.47315,-9.52485 2.9359,-2.6078 4.97203,-5.82317 5.45779,-9.50379 l -0.0222,-0.003 c 0.15287,-1.15117 0.17978,-2.31594 0.0261,-3.48593 -0.48435,-3.68795 -2.5257,-6.909898 -5.469,-9.52205 2.93717,-2.608164 4.9744,-5.824121 5.46029,-9.505717 l -0.0177,-0.0023 c 0.15288,-1.151168 0.17977,-2.315875 0.0261,-3.485938 -0.53598,-4.081224 -2.96773,-7.599577 -6.43189,-10.342941 -3.46406,-2.743305 -8.00741,-4.840136 -13.35069,-6.379032 -3.33955,-0.961854 -6.9966,-1.703412 -10.90645,-2.210011 -8.60182,-1.113341 -18.421185,-1.086263 -28.746149,0.269691 -15.018172,1.972384 -28.287536,6.381922 -37.816996,12.11482 -2.230592,1.341912 -4.249575,2.761703 -6.048141,4.250573 -0.209396,-0.25386 -0.419506,-0.508184 -0.607024,-0.760359 -2.013107,-2.708293 -2.750442,-5.170993 -2.444544,-7.488955 0.22568,-1.712764 1.003207,-3.509891 2.437336,-5.43673 2.0148,-2.707016 5.302807,-5.528647 9.609718,-8.119656 8.613791,-5.182044 21.255241,-9.45356 35.603654,-11.337957 10.014917,-1.315262 19.522856,-1.28762 27.639646,-0.207801 l 0.01,-0.0056 a 2.8678844,2.8678844 45 0 0 0.002,3e-4 2.8678844,2.8678844 45 0 0 3.21846,-2.468001 2.8678844,2.8678844 45 0 0 -2.468,-3.218462 l 3e-4,-0.0023 0.0126,-0.0076 c -0.13939,-0.01879 -0.27477,-0.04089 -0.41477,-0.05937 z m -0.71077,28.178331 c 3.65263,0.469437 7.02893,1.152652 10.0476,2.02208 4.82988,1.391022 8.72627,3.268052 11.37172,5.363037 2.64546,2.094999 3.996,4.276637 4.30045,6.59487 0.0854,0.650387 0.0794,1.312801 -0.005,1.988141 l -0.005,-6.01e-4 c -0.30592,2.31796 -1.657,4.505046 -4.30369,6.59837 -0.10956,0.08667 -0.23416,0.170999 -0.34804,0.256893 -2.74569,-1.523207 -5.90927,-2.784427 -9.42902,-3.798134 -3.33955,-0.961855 -6.9966,-1.703412 -10.90646,-2.210001 -8.60175,-1.113331 -18.421165,-1.086261 -28.746152,0.269691 -9.118977,1.197627 -17.586277,3.297373 -24.970035,6.042784 -3.687894,-1.476174 -7.022019,-3.103826 -9.897685,-4.836288 -1.798193,-1.083328 -3.407163,-2.206041 -4.831333,-3.342781 1.427047,-1.140378 3.039721,-2.265354 4.842224,-3.349794 8.613816,-5.182053 21.255254,-9.453571 35.603665,-11.337956 9.864527,-1.295525 19.240156,-1.293108 27.275946,-0.260324 z m 3.3e-4,22.516043 c 3.65263,0.469437 7.02893,1.152652 10.04761,2.022091 1.74561,0.502675 3.36399,1.071788 4.85073,1.688779 -1.49086,0.617138 -3.11567,1.184526 -4.86695,1.687722 -9.66151,2.776056 -22.978176,3.638896 -37.325371,1.745454 -5.893177,-0.777742 -11.490285,-1.964417 -16.646275,-3.446624 5.161094,-1.479262 10.764763,-2.66232 16.664319,-3.437098 9.864527,-1.295525 19.240157,-1.293108 27.275937,-0.260324 z m 21.05297,7.113042 c 0.12026,0.09062 0.25078,0.180558 0.36635,0.272086 2.64547,2.09499 3.996,4.27663 4.30045,6.59486 0.0854,0.65034 0.0793,1.31284 -0.005,1.98814 -0.30592,2.31797 -1.65691,4.50506 -4.30369,6.59837 -0.10918,0.0864 -0.23429,0.16913 -0.34774,0.25467 -2.74384,-1.52113 -5.90638,-2.78232 -9.42266,-3.79502 -3.33954,-0.96186 -6.99661,-1.70341 -10.90645,-2.21001 -8.60183,-1.11335 -18.421177,-1.08627 -28.746152,0.26969 -9.119377,1.19768 -17.586388,3.29944 -24.970341,6.04501 -3.690453,-1.47686 -7.026684,-3.10591 -9.904043,-4.8394 -1.799213,-1.08393 -3.408505,-2.20789 -4.83327,-3.34529 1.426448,-1.13969 3.038177,-2.26409 4.839714,-3.34787 2.873762,-1.7288 6.204745,-3.3526 9.888923,-4.823937 7.377549,2.746377 15.836518,4.849417 24.946823,6.051727 15.01689,1.98183 28.966636,1.15631 39.655146,-1.91484 3.5255,-1.01296 6.6925,-2.2742 9.44168,-3.798186 z M 38.566233,88.651862 c 1.794083,1.485352 3.808877,2.900599 6.032693,4.240334 1.7394,1.047914 3.606726,2.050608 5.583465,3.003616 -1.971539,0.949547 -3.834647,1.947504 -5.570125,2.991567 -2.230074,1.341591 -4.249585,2.759851 -6.047847,4.248341 -0.208266,-0.2526 -0.416287,-0.50653 -0.602881,-0.75755 -2.013107,-2.708295 -2.750432,-5.170982 -2.444533,-7.488957 0.217373,-1.726009 0.998975,-3.537525 2.445415,-5.480847 0.1867,-0.250855 0.395434,-0.503928 0.603813,-0.756504 z m 71.899487,26.072408 c 3.65263,0.46944 7.02702,1.15014 10.04568,2.01957 1.74307,0.50202 3.36161,1.06997 4.84659,1.68599 -1.49161,0.61756 -3.1171,1.18614 -4.86946,1.68963 -9.6615,2.77606 -22.978185,3.63891 -37.325381,1.74547 -5.889924,-0.77732 -11.48374,-1.96439 -16.637381,-3.44545 5.16065,-1.47906 10.763159,-2.66271 16.662091,-3.43741 9.864526,-1.29551 19.242081,-1.29058 27.277861,-0.2578 z m 21.0466,7.10993 c 0.1217,0.0916 0.25397,0.18015 0.37081,0.27268 2.64546,2.095 3.996,4.27664 4.30045,6.59486 0.0854,0.65035 0.0793,1.31286 -0.005,1.98814 l -0.0114,-10e-4 c -0.30592,2.31797 -1.65691,4.50505 -4.30369,6.59836 -0.10555,0.0835 -0.22591,0.16449 -0.33547,0.24727 -2.73935,-1.51634 -5.89585,-2.7732 -9.40383,-3.78351 -3.33955,-0.96186 -6.99661,-1.70341 -10.90645,-2.21 -8.60183,-1.11334 -18.42117,-1.08626 -28.746155,0.26968 -9.124382,1.19833 -17.595518,3.30242 -24.982321,6.05021 -3.698316,-1.47892 -7.040708,-3.11214 -9.923159,-4.84869 -1.795513,-1.08171 -3.40267,-2.20247 -4.825254,-3.33746 1.427398,-1.14085 3.039501,-2.26939 4.84281,-3.35423 2.873607,-1.72877 6.204986,-3.35268 9.888913,-4.82396 7.376111,2.74526 15.832379,4.84887 24.940159,6.05086 15.016889,1.98182 28.966647,1.15631 39.655157,-1.91484 3.52618,-1.01317 6.69435,-2.27352 9.44388,-3.7979 z M 38.56908,111.16598 c 1.794671,1.48607 3.809837,2.90253 6.034628,4.24286 1.740526,1.04858 3.609731,2.05063 5.587901,3.00419 -1.970881,0.9493 -3.832933,1.94811 -5.567895,2.99186 -2.232086,1.3428 -4.253465,2.76224 -6.052881,4.2522 -0.210155,-0.25469 -0.420833,-0.50979 -0.608958,-0.76288 -2.013107,-2.70829 -2.750433,-5.17098 -2.444534,-7.48895 0.217373,-1.72601 0.998953,-3.53745 2.445415,-5.48085 0.18729,-0.25165 0.397225,-0.50505 0.606324,-0.75843 z m 71.92809,26.07844 c 3.65262,0.46944 7.027,1.15014 10.04567,2.01957 1.73496,0.49968 3.34562,1.06594 4.82496,1.67861 -1.49408,0.61904 -3.12302,1.18839 -4.87893,1.69292 -9.66151,2.77605 -22.978189,3.6389 -37.325384,1.74545 -5.881577,-0.77621 -11.468147,-1.95997 -16.615758,-3.43807 5.163286,-1.48035 10.768977,-2.66549 16.67157,-3.44067 9.864494,-1.29553 19.242082,-1.29059 27.277872,-0.25781 z m 21.03028,7.09649 c 0.12749,0.0958 0.26492,0.18935 0.38711,0.28612 2.64546,2.09499 3.996,4.27663 4.30045,6.59487 0.0854,0.65034 0.0793,1.31284 -0.005,1.98814 l -0.0222,-0.003 c -0.30592,2.31797 -1.6569,4.50506 -4.30368,6.59837 -2.64679,2.09331 -6.54441,3.96072 -11.37518,5.34872 -9.66149,2.77606 -22.978175,3.63891 -37.325371,1.74547 -14.347195,-1.89345 -26.986314,-6.18177 -35.596847,-11.36925 -1.792834,-1.08009 -3.398078,-2.19887 -4.819176,-3.33214 1.428652,-1.14219 3.042435,-2.27198 4.847843,-3.35809 2.870942,-1.72716 6.199312,-3.34825 9.87915,-4.81844 7.37099,2.74127 15.820011,4.84044 24.918828,6.04124 15.01689,1.98183 28.966643,1.15632 39.655153,-1.91484 3.53276,-1.01504 6.70562,-2.27901 9.45868,-3.80724 z M 38.577419,133.68986 c 1.792558,1.48348 3.805359,2.89682 6.026625,4.23502 1.746389,1.05212 3.62112,2.05929 5.606721,3.01572 -1.966051,0.94743 -3.824468,1.94298 -5.555623,2.98445 -2.234599,1.34431 -4.257239,2.76646 -6.058206,4.25827 -0.212407,-0.25718 -0.424778,-0.51488 -0.614733,-0.77042 -2.013107,-2.70829 -2.750444,-5.17098 -2.444545,-7.48895 l -0.0091,-0.001 c 0.217373,-1.72601 0.998964,-3.53745 2.445416,-5.48086 0.186233,-0.25021 0.395428,-0.50011 0.603227,-0.75206 z" style="color:#000000;font-style:normal;font-variant:normal;font-weight:normal;font-stretch:normal;font-size:medium;line-height:normal;font-family:sans-serif;font-variant-ligatures:normal;font-variant-position:normal;font-variant-caps:normal;font-variant-numeric:normal;font-variant-alternates:normal;font-feature-settings:normal;text-indent:0;text-align:start;text-decoration:none;text-decoration-line:none;text-decoration-style:solid;text-decoration-color:#000000;letter-spacing:normal;word-spacing:normal;text-transform:none;writing-mode:lr-tb;direction:ltr;text-orientation:mixed;dominant-baseline:auto;baseline-shift:baseline;text-anchor:start;white-space:normal;shape-padding:0;clip-rule:nonzero;display:inline;overflow:visible;visibility:visible;opacity:1;isolation:auto;mix-blend-mode:normal;color-interpolation:sRGB;color-interpolation-filters:linearRGB;solid-color:#000000;solid-opacity:1;vector-effect:none;fill:#cccccc;fill-opacity:1;fill-rule:nonzero;stroke:none;stroke-width:1.32291651;stroke-linecap:round;stroke-linejoin:round;stroke-miterlimit:4;stroke-dasharray:none;stroke-dashoffset:0;stroke-opacity:1;color-rendering:auto;image-rendering:auto;shape-rendering:auto;text-rendering:auto;enable-background:accumulate"/> <path id="path2288" d="m 40.831624,78.866886 c -0.792545,0.572622 -1.546574,1.158947 -2.267834,1.755012 1.101129,1.3349 2.501673,2.686693 4.172486,4.01969 0.748289,-0.596929 1.537881,-1.189877 2.390257,-1.775014 -1.786642,-1.366288 -3.230913,-2.728076 -4.294909,-3.999688 z m -6.379078,5.782071 c -0.375386,0.440399 -0.754798,0.88 -1.091049,1.331777 -0.238945,0.321011 -0.466657,0.647659 -0.6848,0.976321 1.25806,1.420698 2.676406,2.766752 4.239003,4.046555 0.302442,-0.523247 0.64271,-1.052459 1.04672,-1.595244 0.183323,-0.246314 0.415618,-0.495108 0.620113,-0.743059 -1.552608,-1.284038 -2.940008,-2.62101 -4.129987,-4.01635 z" style="color:#000000;font-style:normal;font-variant:normal;font-weight:normal;font-stretch:normal;font-size:medium;line-height:normal;font-family:sans-serif;font-variant-ligatures:normal;font-variant-position:normal;font-variant-caps:normal;font-variant-numeric:normal;font-variant-alternates:normal;font-feature-settings:normal;text-indent:0;text-align:start;text-decoration:none;text-decoration-line:none;text-decoration-style:solid;text-decoration-color:#000000;letter-spacing:normal;word-spacing:normal;text-transform:none;writing-mode:lr-tb;direction:ltr;text-orientation:mixed;dominant-baseline:auto;baseline-shift:baseline;text-anchor:start;white-space:normal;shape-padding:0;clip-rule:nonzero;display:inline;overflow:visible;visibility:visible;opacity:0.15;isolation:auto;mix-blend-mode:normal;color-interpolation:sRGB;color-interpolation-filters:linearRGB;solid-color:#000000;solid-opacity:1;vector-effect:none;fill:#000000;fill-opacity:1;fill-rule:nonzero;stroke:none;stroke-width:1.32291651;stroke-linecap:round;stroke-linejoin:round;stroke-miterlimit:4;stroke-dasharray:none;stroke-dashoffset:0;stroke-opacity:1;color-rendering:auto;image-rendering:auto;shape-rendering:auto;text-rendering:auto;enable-background:accumulate"/> <path id="path2448" d="m 61.740579,91.3351 c -1.464474,0.469169 -2.885485,0.96629 -4.274992,1.48334 2.820255,1.128607 5.851427,2.165682 9.057334,3.086919 1.860723,-0.533695 3.773053,-1.033469 5.74403,-1.483824 -3.73334,-0.882551 -7.253268,-1.925164 -10.526372,-3.086435 z m -11.545445,4.566907 c -1.092164,0.526415 -2.157203,1.064995 -3.179025,1.621197 2.103529,1.089119 4.337358,2.115027 6.681561,3.073956 1.208551,-0.55696 2.472428,-1.094412 3.774818,-1.614894 -2.561743,-0.953289 -4.996617,-1.981222 -7.277354,-3.080259 z" style="color:#000000;font-style:normal;font-variant:normal;font-weight:normal;font-stretch:normal;font-size:medium;line-height:normal;font-family:sans-serif;font-variant-ligatures:normal;font-variant-position:normal;font-variant-caps:normal;font-variant-numeric:normal;font-variant-alternates:normal;font-feature-settings:normal;text-indent:0;text-align:start;text-decoration:none;text-decoration-line:none;text-decoration-style:solid;text-decoration-color:#000000;letter-spacing:normal;word-spacing:normal;text-transform:none;writing-mode:lr-tb;direction:ltr;text-orientation:mixed;dominant-baseline:auto;baseline-shift:baseline;text-anchor:start;white-space:normal;shape-padding:0;clip-rule:nonzero;display:inline;overflow:visible;visibility:visible;opacity:0.15;isolation:auto;mix-blend-mode:normal;color-interpolation:sRGB;color-interpolation-filters:linearRGB;solid-color:#000000;solid-opacity:1;vector-effect:none;fill:#000000;fill-opacity:1;fill-rule:nonzero;stroke:none;stroke-width:1.32291651;stroke-linecap:round;stroke-linejoin:round;stroke-miterlimit:4;stroke-dasharray:none;stroke-dashoffset:0;stroke-opacity:1;color-rendering:auto;image-rendering:auto;shape-rendering:auto;text-rendering:auto;enable-background:accumulate"/> <path id="path2444" d="m 128.57501,91.056849 c -1.91383,1.211679 -4.44323,2.380038 -7.4713,3.355372 1.51317,0.45624 2.92071,0.964654 4.23278,1.507796 2.45156,-1.013709 4.52178,-2.166218 6.16211,-3.401588 -0.93187,-0.514289 -1.89865,-1.00603 -2.92359,-1.46158 z m 7.80757,4.8678 c -0.31445,0.278786 -0.63053,0.557322 -0.96498,0.821841 -1.17951,0.932855 -2.49405,1.784597 -3.91227,2.570794 0.12057,0.09078 0.25056,0.180378 0.36635,0.272086 0.72573,0.5747 1.34437,1.15772 1.88032,1.7465 1.21951,-0.72211 2.37385,-1.49711 3.44382,-2.343338 0.41434,-0.327694 0.81276,-0.673538 1.20427,-1.025291 -0.60686,-0.719365 -1.29354,-1.393583 -2.01751,-2.042592 z" style="color:#000000;font-style:normal;font-variant:normal;font-weight:normal;font-stretch:normal;font-size:medium;line-height:normal;font-family:sans-serif;font-variant-ligatures:normal;font-variant-position:normal;font-variant-caps:normal;font-variant-numeric:normal;font-variant-alternates:normal;font-feature-settings:normal;text-indent:0;text-align:start;text-decoration:none;text-decoration-line:none;text-decoration-style:solid;text-decoration-color:#000000;letter-spacing:normal;word-spacing:normal;text-transform:none;writing-mode:lr-tb;direction:ltr;text-orientation:mixed;dominant-baseline:auto;baseline-shift:baseline;text-anchor:start;white-space:normal;shape-padding:0;clip-rule:nonzero;display:inline;overflow:visible;visibility:visible;opacity:0.15;isolation:auto;mix-blend-mode:normal;color-interpolation:sRGB;color-interpolation-filters:linearRGB;solid-color:#000000;solid-opacity:1;vector-effect:none;fill:#000000;fill-opacity:1;fill-rule:nonzero;stroke:none;stroke-width:1.32291651;stroke-linecap:round;stroke-linejoin:round;stroke-miterlimit:4;stroke-dasharray:none;stroke-dashoffset:0;stroke-opacity:1;color-rendering:auto;image-rendering:auto;shape-rendering:auto;text-rendering:auto;enable-background:accumulate"/> <path style="color:#000000;font-style:normal;font-variant:normal;font-weight:normal;font-stretch:normal;font-size:medium;line-height:normal;font-family:sans-serif;font-variant-ligatures:normal;font-variant-position:normal;font-variant-caps:normal;font-variant-numeric:normal;font-variant-alternates:normal;font-feature-settings:normal;text-indent:0;text-align:start;text-decoration:none;text-decoration-line:none;text-decoration-style:solid;text-decoration-color:#000000;letter-spacing:normal;word-spacing:normal;text-transform:none;writing-mode:lr-tb;direction:ltr;text-orientation:mixed;dominant-baseline:auto;baseline-shift:baseline;text-anchor:start;white-space:normal;shape-padding:0;clip-rule:nonzero;display:inline;overflow:visible;visibility:visible;opacity:0.15;isolation:auto;mix-blend-mode:normal;color-interpolation:sRGB;color-interpolation-filters:linearRGB;solid-color:#000000;solid-opacity:1;vector-effect:none;fill:#000000;fill-opacity:1;fill-rule:nonzero;stroke:none;stroke-width:1.32291663;stroke-linecap:round;stroke-linejoin:round;stroke-miterlimit:4;stroke-dasharray:none;stroke-dashoffset:0;stroke-opacity:1;color-rendering:auto;image-rendering:auto;shape-rendering:auto;text-rendering:auto;enable-background:accumulate" d="m 40.832858,101.38418 c -0.792544,0.57261 -1.546576,1.15896 -2.267834,1.75501 1.101128,1.3349 2.501674,2.68671 4.172488,4.01969 0.748284,-0.59691 1.537884,-1.18989 2.39026,-1.77503 -1.786646,-1.36629 -3.230916,-2.72806 -4.294914,-3.99967 z m -6.379082,5.78209 c -0.375403,0.4404 -0.75479,0.87997 -1.09104,1.33174 -0.238937,0.32095 -0.466653,0.64767 -0.684808,0.97636 1.258064,1.42068 2.676406,2.76674 4.23901,4.04652 0.302456,-0.52323 0.642708,-1.05245 1.046713,-1.59521 0.183367,-0.24651 0.415645,-0.49514 0.620112,-0.74306 -1.552602,-1.28405 -2.940001,-2.62105 -4.129987,-4.01635 z" id="path2409"/> <path id="path2416" d="m 40.844315,123.90168 c -0.792545,0.57261 -1.546577,1.15896 -2.267835,1.75502 1.101129,1.3349 2.501674,2.6867 4.172489,4.01968 0.748283,-0.59691 1.537884,-1.18989 2.390259,-1.77503 -1.786646,-1.36628 -3.230916,-2.72806 -4.294913,-3.99967 z m -6.379083,5.7821 c -0.375403,0.44039 -0.75479,0.87996 -1.09104,1.33173 -0.238937,0.32096 -0.466652,0.64768 -0.684808,0.97636 1.258065,1.42069 2.676406,2.76675 4.23901,4.04653 0.302456,-0.52324 0.642708,-1.05246 1.046713,-1.59522 0.183367,-0.24651 0.415645,-0.49513 0.620112,-0.74305 -1.552602,-1.28406 -2.940001,-2.62105 -4.129987,-4.01635 z" style="color:#000000;font-style:normal;font-variant:normal;font-weight:normal;font-stretch:normal;font-size:medium;line-height:normal;font-family:sans-serif;font-variant-ligatures:normal;font-variant-position:normal;font-variant-caps:normal;font-variant-numeric:normal;font-variant-alternates:normal;font-feature-settings:normal;text-indent:0;text-align:start;text-decoration:none;text-decoration-line:none;text-decoration-style:solid;text-decoration-color:#000000;letter-spacing:normal;word-spacing:normal;text-transform:none;writing-mode:lr-tb;direction:ltr;text-orientation:mixed;dominant-baseline:auto;baseline-shift:baseline;text-anchor:start;white-space:normal;shape-padding:0;clip-rule:nonzero;display:inline;overflow:visible;visibility:visible;opacity:0.15;isolation:auto;mix-blend-mode:normal;color-interpolation:sRGB;color-interpolation-filters:linearRGB;solid-color:#000000;solid-opacity:1;vector-effect:none;fill:#000000;fill-opacity:1;fill-rule:nonzero;stroke:none;stroke-width:1.32291663;stroke-linecap:round;stroke-linejoin:round;stroke-miterlimit:4;stroke-dasharray:none;stroke-dashoffset:0;stroke-opacity:1;color-rendering:auto;image-rendering:auto;shape-rendering:auto;text-rendering:auto;enable-background:accumulate"/> <path id="path2455" d="m 61.752027,113.85261 c -1.464479,0.4692 -2.885498,0.9663 -4.275005,1.48335 2.820257,1.12859 5.851425,2.16569 9.057335,3.08691 1.860718,-0.53366 3.773052,-1.03346 5.74403,-1.48383 -3.733353,-0.88235 -7.253273,-1.92513 -10.52636,-3.08643 z m -11.545458,4.56692 c -1.092165,0.52641 -2.157202,1.06498 -3.179025,1.62119 2.103528,1.08912 4.337359,2.11502 6.681562,3.07395 1.208553,-0.55698 2.472442,-1.09444 3.774828,-1.61488 -2.561738,-0.95333 -4.996626,-1.98124 -7.277365,-3.08026 z" style="color:#000000;font-style:normal;font-variant:normal;font-weight:normal;font-stretch:normal;font-size:medium;line-height:normal;font-family:sans-serif;font-variant-ligatures:normal;font-variant-position:normal;font-variant-caps:normal;font-variant-numeric:normal;font-variant-alternates:normal;font-feature-settings:normal;text-indent:0;text-align:start;text-decoration:none;text-decoration-line:none;text-decoration-style:solid;text-decoration-color:#000000;letter-spacing:normal;word-spacing:normal;text-transform:none;writing-mode:lr-tb;direction:ltr;text-orientation:mixed;dominant-baseline:auto;baseline-shift:baseline;text-anchor:start;white-space:normal;shape-padding:0;clip-rule:nonzero;display:inline;overflow:visible;visibility:visible;opacity:0.15;isolation:auto;mix-blend-mode:normal;color-interpolation:sRGB;color-interpolation-filters:linearRGB;solid-color:#000000;solid-opacity:1;vector-effect:none;fill:#000000;fill-opacity:1;fill-rule:nonzero;stroke:none;stroke-width:1.32291651;stroke-linecap:round;stroke-linejoin:round;stroke-miterlimit:4;stroke-dasharray:none;stroke-dashoffset:0;stroke-opacity:1;color-rendering:auto;image-rendering:auto;shape-rendering:auto;text-rendering:auto;enable-background:accumulate"/> <path id="path2451" d="m 128.58644,113.57436 c -1.91383,1.21169 -4.44322,2.38003 -7.4713,3.35538 1.51316,0.4564 2.9207,0.96465 4.2328,1.5078 2.45156,-1.01369 4.52175,-2.16624 6.1621,-3.4016 -0.93187,-0.5144 -1.89866,-1.00601 -2.9236,-1.46158 z m 7.80758,4.86781 c -0.31442,0.27863 -0.63053,0.5573 -0.96498,0.82183 -1.17951,0.93285 -2.49403,1.7846 -3.91228,2.57079 0.12064,0.0907 0.2506,0.18028 0.36637,0.27209 0.72573,0.5747 1.34436,1.15771 1.88032,1.7465 1.2195,-0.72211 2.37385,-1.49715 3.44382,-2.34334 0.4143,-0.32755 0.81274,-0.67352 1.20427,-1.02528 -0.60686,-0.71939 -1.29354,-1.39356 -2.01752,-2.04259 z" style="color:#000000;font-style:normal;font-variant:normal;font-weight:normal;font-stretch:normal;font-size:medium;line-height:normal;font-family:sans-serif;font-variant-ligatures:normal;font-variant-position:normal;font-variant-caps:normal;font-variant-numeric:normal;font-variant-alternates:normal;font-feature-settings:normal;text-indent:0;text-align:start;text-decoration:none;text-decoration-line:none;text-decoration-style:solid;text-decoration-color:#000000;letter-spacing:normal;word-spacing:normal;text-transform:none;writing-mode:lr-tb;direction:ltr;text-orientation:mixed;dominant-baseline:auto;baseline-shift:baseline;text-anchor:start;white-space:normal;shape-padding:0;clip-rule:nonzero;display:inline;overflow:visible;visibility:visible;opacity:0.15;isolation:auto;mix-blend-mode:normal;color-interpolation:sRGB;color-interpolation-filters:linearRGB;solid-color:#000000;solid-opacity:1;vector-effect:none;fill:#000000;fill-opacity:1;fill-rule:nonzero;stroke:none;stroke-width:1.32291651;stroke-linecap:round;stroke-linejoin:round;stroke-miterlimit:4;stroke-dasharray:none;stroke-dashoffset:0;stroke-opacity:1;color-rendering:auto;image-rendering:auto;shape-rendering:auto;text-rendering:auto;enable-background:accumulate"/> <path style="color:#000000;font-style:normal;font-variant:normal;font-weight:normal;font-stretch:normal;font-size:medium;line-height:normal;font-family:sans-serif;font-variant-ligatures:normal;font-variant-position:normal;font-variant-caps:normal;font-variant-numeric:normal;font-variant-alternates:normal;font-feature-settings:normal;text-indent:0;text-align:start;text-decoration:none;text-decoration-line:none;text-decoration-style:solid;text-decoration-color:#000000;letter-spacing:normal;word-spacing:normal;text-transform:none;writing-mode:lr-tb;direction:ltr;text-orientation:mixed;dominant-baseline:auto;baseline-shift:baseline;text-anchor:start;white-space:normal;shape-padding:0;clip-rule:nonzero;display:inline;overflow:visible;visibility:visible;opacity:0.15;isolation:auto;mix-blend-mode:normal;color-interpolation:sRGB;color-interpolation-filters:linearRGB;solid-color:#000000;solid-opacity:1;vector-effect:none;fill:#000000;fill-opacity:1;fill-rule:nonzero;stroke:none;stroke-width:1.32291663;stroke-linecap:round;stroke-linejoin:round;stroke-miterlimit:4;stroke-dasharray:none;stroke-dashoffset:0;stroke-opacity:1;color-rendering:auto;image-rendering:auto;shape-rendering:auto;text-rendering:auto;enable-background:accumulate" d="m 40.875773,146.42178 c -0.792545,0.57261 -1.546577,1.15896 -2.267834,1.75502 1.101128,1.33489 2.501673,2.6867 4.172488,4.01968 0.748283,-0.59691 1.537884,-1.18989 2.390259,-1.77503 -1.786645,-1.36628 -3.230916,-2.72806 -4.294913,-3.99967 z m -6.379083,5.7821 c -0.375403,0.44039 -0.75479,0.87996 -1.09104,1.33173 -0.238937,0.32096 -0.466652,0.64768 -0.684808,0.97636 1.258065,1.42068 2.676406,2.76675 4.239011,4.04652 0.302455,-0.52323 0.642708,-1.05245 1.046712,-1.59521 0.183368,-0.24651 0.415645,-0.49513 0.620112,-0.74305 -1.552602,-1.28406 -2.940001,-2.62105 -4.129987,-4.01635 z" id="path2423"/> <path id="path2462" d="m 61.745697,136.36778 c -1.464477,0.4692 -2.885497,0.96629 -4.275004,1.48334 2.820256,1.12861 5.851424,2.16571 9.057334,3.08692 1.86072,-0.53367 3.773052,-1.03346 5.74403,-1.48382 -3.733352,-0.88237 -7.253271,-1.92514 -10.52636,-3.08644 z m -11.545456,4.56691 c -1.092166,0.52643 -2.157203,1.06498 -3.179025,1.6212 2.103528,1.08912 4.337359,2.11501 6.681562,3.07395 1.208553,-0.55698 2.472441,-1.09443 3.774828,-1.61489 -2.56174,-0.95331 -4.996628,-1.98122 -7.277365,-3.08026 z" style="color:#000000;font-style:normal;font-variant:normal;font-weight:normal;font-stretch:normal;font-size:medium;line-height:normal;font-family:sans-serif;font-variant-ligatures:normal;font-variant-position:normal;font-variant-caps:normal;font-variant-numeric:normal;font-variant-alternates:normal;font-feature-settings:normal;text-indent:0;text-align:start;text-decoration:none;text-decoration-line:none;text-decoration-style:solid;text-decoration-color:#000000;letter-spacing:normal;word-spacing:normal;text-transform:none;writing-mode:lr-tb;direction:ltr;text-orientation:mixed;dominant-baseline:auto;baseline-shift:baseline;text-anchor:start;white-space:normal;shape-padding:0;clip-rule:nonzero;display:inline;overflow:visible;visibility:visible;opacity:0.15;isolation:auto;mix-blend-mode:normal;color-interpolation:sRGB;color-interpolation-filters:linearRGB;solid-color:#000000;solid-opacity:1;vector-effect:none;fill:#000000;fill-opacity:1;fill-rule:nonzero;stroke:none;stroke-width:1.32291651;stroke-linecap:round;stroke-linejoin:round;stroke-miterlimit:4;stroke-dasharray:none;stroke-dashoffset:0;stroke-opacity:1;color-rendering:auto;image-rendering:auto;shape-rendering:auto;text-rendering:auto;enable-background:accumulate"/> <path id="path2458" d="m 128.58012,136.08953 c -1.91384,1.21169 -4.44323,2.38004 -7.47131,3.35537 1.51316,0.45641 2.9207,0.96467 4.2328,1.5078 2.45156,-1.01367 4.52176,-2.16624 6.1621,-3.40159 -0.93187,-0.51439 -1.89866,-1.00602 -2.92359,-1.46158 z m 7.80757,4.8678 c -0.31442,0.27864 -0.63053,0.55731 -0.96498,0.82184 -1.17951,0.93285 -2.49403,1.7846 -3.91228,2.5708 0.12064,0.0907 0.25061,0.18026 0.36637,0.27207 0.72573,0.5747 1.34437,1.15772 1.88032,1.74652 1.2195,-0.72212 2.37385,-1.49715 3.44382,-2.34334 0.4143,-0.32755 0.81274,-0.67353 1.20427,-1.0253 -0.60686,-0.71937 -1.29354,-1.39356 -2.01752,-2.04259 z" style="color:#000000;font-style:normal;font-variant:normal;font-weight:normal;font-stretch:normal;font-size:medium;line-height:normal;font-family:sans-serif;font-variant-ligatures:normal;font-variant-position:normal;font-variant-caps:normal;font-variant-numeric:normal;font-variant-alternates:normal;font-feature-settings:normal;text-indent:0;text-align:start;text-decoration:none;text-decoration-line:none;text-decoration-style:solid;text-decoration-color:#000000;letter-spacing:normal;word-spacing:normal;text-transform:none;writing-mode:lr-tb;direction:ltr;text-orientation:mixed;dominant-baseline:auto;baseline-shift:baseline;text-anchor:start;white-space:normal;shape-padding:0;clip-rule:nonzero;display:inline;overflow:visible;visibility:visible;opacity:0.15;isolation:auto;mix-blend-mode:normal;color-interpolation:sRGB;color-interpolation-filters:linearRGB;solid-color:#000000;solid-opacity:1;vector-effect:none;fill:#000000;fill-opacity:1;fill-rule:nonzero;stroke:none;stroke-width:1.32291651;stroke-linecap:round;stroke-linejoin:round;stroke-miterlimit:4;stroke-dasharray:none;stroke-dashoffset:0;stroke-opacity:1;color-rendering:auto;image-rendering:auto;shape-rendering:auto;text-rendering:auto;enable-background:accumulate"/> </g> </g> </svg>