<?xml version="1.0" encoding="UTF-8" standalone="no"?>
<svg
   xmlns:dc="http://purl.org/dc/elements/1.1/"
   xmlns:cc="http://creativecommons.org/ns#"
   xmlns:rdf="http://www.w3.org/1999/02/22-rdf-syntax-ns#"
   xmlns:svg="http://www.w3.org/2000/svg"
   xmlns="http://www.w3.org/2000/svg"
   xmlns:sodipodi="http://sodipodi.sourceforge.net/DTD/sodipodi-0.dtd"
   xmlns:inkscape="http://www.inkscape.org/namespaces/inkscape"
   height="809.08234"
   id="svg8"
   version="1.1"
   viewBox="0 0 214.06975 214.06971"
   width="809.08252"
   sodipodi:docname="type-flying.svg"
   inkscape:version="0.92.2 5c3e80d, 2017-08-06">
  <metadata
     id="metadata14">
    <rdf:RDF>
      <cc:Work
         rdf:about="">
        <dc:format>image/svg+xml</dc:format>
        <dc:type
           rdf:resource="http://purl.org/dc/dcmitype/StillImage" />
        <dc:title></dc:title>
      </cc:Work>
    </rdf:RDF>
  </metadata>
  <sodipodi:namedview
     pagecolor="#ffffff"
     bordercolor="#666666"
     borderopacity="1"
     objecttolerance="10"
     gridtolerance="10"
     guidetolerance="10"
     inkscape:pageopacity="0"
     inkscape:pageshadow="2"
     inkscape:window-width="640"
     inkscape:window-height="480"
     id="namedview12"
     showgrid="false"
     fit-margin-top="0"
     fit-margin-left="0"
     fit-margin-right="0"
     fit-margin-bottom="0"
     inkscape:zoom="0.236"
     inkscape:cx="396.83859"
     inkscape:cy="402.49529"
     inkscape:window-x="0"
     inkscape:window-y="0"
     inkscape:window-maximized="0"
     inkscape:current-layer="svg8" />
  <defs
     id="defs2" />
  <g
     id="layer1"
     transform="translate(-27.294789,-57.132154)">
    <g
       id="g7075"
       transform="translate(42.105993,42.808222)">
      <path
         style="opacity:1;fill:#b7c8b7;fill-opacity:1;stroke:#333333;stroke-width:0;stroke-linecap:butt;stroke-linejoin:miter;stroke-miterlimit:4;stroke-dasharray:none;stroke-dashoffset:0;stroke-opacity:1"
         d="M 193.85308,94.12725 A 105.21455,105.21455 0 0 1 119.45519,222.98818 105.21455,105.21455 0 0 1 -9.4057411,148.59028 105.21455,105.21455 0 0 1 64.992158,19.729307 105.21455,105.21455 0 0 1 193.85308,94.12725 Z"
         id="path1524"
         inkscape:connector-curvature="0" />
      <path
         style="fill:#93ac93;stroke:none;stroke-width:0.26458332px;stroke-linecap:butt;stroke-linejoin:miter;stroke-opacity:1"
         d="m 134.96966,59.006961 -75.879222,106.380399 6.028438,6.02846 -11.259287,15.50171 39.517722,39.51769 a 105.21454,105.21454 0 0 0 26.077019,-3.44708 105.21454,105.21454 0 0 0 77.85841,-101.63812 z"
         id="path1904"
         inkscape:connector-curvature="0" />
      <path
         style="opacity:1;fill:#536c53;fill-opacity:1;stroke:#333333;stroke-width:0;stroke-linecap:butt;stroke-linejoin:miter;stroke-miterlimit:4;stroke-dasharray:none;stroke-dashoffset:0;stroke-opacity:1"
         d="M 92.223674,14.323933 A 107.03486,107.03486 0 0 0 -14.811203,121.35877 107.03486,107.03486 0 0 0 92.223674,228.39364 107.03486,107.03486 0 0 0 199.25854,121.35877 107.03486,107.03486 0 0 0 92.223674,14.323933 Z m 0,3.640607 A 103.39421,103.39421 0 0 1 195.61789,121.35877 103.39421,103.39421 0 0 1 92.223674,224.75299 103.39421,103.39421 0 0 1 -11.170552,121.35877 103.39421,103.39421 0 0 1 92.223674,17.96454 Z"
         id="path1526"
         inkscape:connector-curvature="0" />
      <rect
         style="opacity:1;fill:#d7f4e3;fill-opacity:1;stroke:none;stroke-width:0.26458332;stroke-linecap:round;stroke-linejoin:round;stroke-miterlimit:4;stroke-dasharray:none;stroke-dashoffset:0;stroke-opacity:1"
         height="1.0477672e-05"
         id="rect1880"
         width="1.5390155e-05"
         x="114.70975"
         y="85.507118" />
      <path
         style="opacity:1;fill:#afe9c6;fill-opacity:1;stroke:none;stroke-width:0.26458332;stroke-linecap:round;stroke-linejoin:round;stroke-miterlimit:4;stroke-dasharray:none;stroke-dashoffset:0;stroke-opacity:1"
         d="M 130.25304,55.489914 C 119.08935,49.044562 105.23743,52.281375 99.194891,62.74734 L 81.452698,93.477698 c -1.991701,3.449769 -2.858862,7.240232 -2.753611,11.004622 -3.312691,1.79106 -6.161769,4.43729 -8.153471,7.88701 l -6.689682,11.58685 c -2.265062,3.92322 -3.101675,8.28919 -2.674541,12.55375 -3.536121,1.1194 -6.450515,3.25133 -8.232541,6.33789 -4.753456,8.23325 0.407136,20.05029 11.570828,26.49565 11.163689,6.44535 23.977853,5.00602 28.731305,-3.22719 1.782026,-3.08656 2.171133,-6.67647 1.372516,-10.29852 3.906795,-1.76239 7.269509,-4.6699 9.534569,-8.59311 l 6.68968,-11.58685 c 1.9917,-3.44973 2.85887,-7.24024 2.75361,-11.00462 3.31269,-1.79107 6.16177,-4.43729 8.15348,-7.88702 l 17.74218,-30.730357 c 6.04254,-10.466009 1.91971,-24.080492 -9.24398,-30.525889 z"
         id="rect1887"
         inkscape:connector-curvature="0" />
      <rect
         style="opacity:1;fill:#6f916f;fill-opacity:1;stroke:none;stroke-width:0.26458332;stroke-linecap:round;stroke-linejoin:round;stroke-miterlimit:4;stroke-dasharray:none;stroke-dashoffset:0;stroke-opacity:1"
         height="129.2621"
         id="rect1878"
         rx="2.3268511"
         ry="2.37409"
         transform="rotate(30)"
         width="4.6537023"
         x="138.51141"
         y="5.7845292" />
    </g>
  </g>
</svg>
