<?xml version='1.0' encoding='utf-8'?>
<svg xmlns="http://www.w3.org/2000/svg" width="1000" height="1000" viewBox="0 0 264.58333 264.58334" version="1.1" id="svg8"> <defs id="defs2"/> <metadata id="metadata5"> </metadata> <g id="layer1" transform="translate(0,-32.41665)"> <g id="g7075" transform="translate(42.105993,42.808222)"> <path id="path1524" d="M 193.85308,94.12725 A 105.21455,105.21455 0 0 1 119.45519,222.98818 105.21455,105.21455 0 0 1 -9.4057411,148.59028 105.21455,105.21455 0 0 1 64.992158,19.729307 105.21455,105.21455 0 0 1 193.85308,94.12725 Z" style="opacity:1;fill:#b7c8b7;fill-opacity:1;stroke:#333333;stroke-width:0;stroke-linecap:butt;stroke-linejoin:miter;stroke-miterlimit:4;stroke-dasharray:none;stroke-dashoffset:0;stroke-opacity:1"/> <path style="fill:#93ac93;stroke:none;stroke-width:0.26458332px;stroke-linecap:butt;stroke-linejoin:miter;stroke-opacity:1" d="m 134.96966,59.006961 -75.879222,106.380399 6.028438,6.02846 -11.259287,15.50171 39.517722,39.51769 a 105.21454,105.21454 0 0 0 26.077019,-3.44708 105.21454,105.21454 0 0 0 77.85841,-101.63812 z" id="path1904"/> <path id="path1526" d="M 92.223674,14.323933 A 107.03486,107.03486 0 0 0 -14.811203,121.35877 107.03486,107.03486 0 0 0 92.223674,228.39364 107.03486,107.03486 0 0 0 199.25854,121.35877 107.03486,107.03486 0 0 0 92.223674,14.323933 Z m 0,3.640607 A 103.39421,103.39421 0 0 1 195.61789,121.35877 103.39421,103.39421 0 0 1 92.223674,224.75299 103.39421,103.39421 0 0 1 -11.170552,121.35877 103.39421,103.39421 0 0 1 92.223674,17.96454 Z" style="opacity:1;fill:#536c53;fill-opacity:1;stroke:#333333;stroke-width:0;stroke-linecap:butt;stroke-linejoin:miter;stroke-miterlimit:4;stroke-dasharray:none;stroke-dashoffset:0;stroke-opacity:1"/> <rect style="opacity:1;fill:#d7f4e3;fill-opacity:1;stroke:none;stroke-width:0.26458332;stroke-linecap:round;stroke-linejoin:round;stroke-miterlimit:4;stroke-dasharray:none;stroke-dashoffset:0;stroke-opacity:1" id="rect1880" width="1.5390155e-005" height="1.0477672e-005" x="114.70975" y="85.507118"/> <path style="opacity:1;fill:#afe9c6;fill-opacity:1;stroke:none;stroke-width:0.26458332;stroke-linecap:round;stroke-linejoin:round;stroke-miterlimit:4;stroke-dasharray:none;stroke-dashoffset:0;stroke-opacity:1" d="M 130.25304,55.489914 C 119.08935,49.044562 105.23743,52.281375 99.194891,62.74734 L 81.452698,93.477698 c -1.991701,3.449769 -2.858862,7.240232 -2.753611,11.004622 -3.312691,1.79106 -6.161769,4.43729 -8.153471,7.88701 l -6.689682,11.58685 c -2.265062,3.92322 -3.101675,8.28919 -2.674541,12.55375 -3.536121,1.1194 -6.450515,3.25133 -8.232541,6.33789 -4.753456,8.23325 0.407136,20.05029 11.570828,26.49565 11.163689,6.44535 23.977853,5.00602 28.731305,-3.22719 1.782026,-3.08656 2.171133,-6.67647 1.372516,-10.29852 3.906795,-1.76239 7.269509,-4.6699 9.534569,-8.59311 l 6.68968,-11.58685 c 1.9917,-3.44973 2.85887,-7.24024 2.75361,-11.00462 3.31269,-1.79107 6.16177,-4.43729 8.15348,-7.88702 l 17.74218,-30.730357 c 6.04254,-10.466009 1.91971,-24.080492 -9.24398,-30.525889 z" id="rect1887"/> <rect style="opacity:1;fill:#6f916f;fill-opacity:1;stroke:none;stroke-width:0.26458332;stroke-linecap:round;stroke-linejoin:round;stroke-miterlimit:4;stroke-dasharray:none;stroke-dashoffset:0;stroke-opacity:1" id="rect1878" width="4.6537023" height="129.2621" x="138.51141" y="5.7845292" ry="2.37409" rx="2.3268511" transform="rotate(30)"/> </g> </g> </svg>