<?xml version='1.0' encoding='utf-8'?>
<svg xmlns="http://www.w3.org/2000/svg" width="1000" height="1000" viewBox="0 0 264.58333 264.58334" version="1.1" id="svg8"> <defs id="defs2"/> <metadata id="metadata5"> </metadata> <g id="layer1" transform="translate(0,-32.41665)"> <g id="g7075" transform="translate(42.105993,42.808222)"> <path id="path1096" d="M 207.78462,87.053612 A 118.08802,118.08802 0 0 1 124.28381,231.68126 118.08802,118.08802 0 0 1 -20.343839,148.18044 118.08802,118.08802 0 0 1 63.156977,3.5527407 118.08802,118.08802 0 0 1 207.78462,87.053612 Z" style="opacity:1;fill:#abc837;fill-opacity:1;stroke:#333333;stroke-width:0;stroke-linecap:butt;stroke-linejoin:miter;stroke-miterlimit:4;stroke-dasharray:none;stroke-dashoffset:0;stroke-opacity:1"/> <path style="fill:#89a02c;stroke:none;stroke-width:0.26458332px;stroke-linecap:butt;stroke-linejoin:miter;stroke-opacity:1" d="m 94.145787,13.990266 -0.318791,15.740669 -0.461604,9.464304 -1.729129,7.732627 -3.578117,6.347791 -7.156247,7.964689 -7.617863,4.616114 -9.579068,2.769661 -8.194231,-0.232075 -8.079466,-1.84644 -5.886174,-2.422822 h -2.193293 l 3.348601,6.579865 1.72913,6.809408 0.346839,7.732614 -1.152749,7.732614 -3.692894,7.962155 -5.424557,6.92672 -6.347791,4.73088 -10.004971,4.77677 -28.0613628,0.67839 51.2617778,51.26177 -21.004576,21.69827 39.606727,39.60672 a 118.08802,118.08802 0 0 0 64.327142,1.06094 118.08802,118.08802 0 0 0 44.9956,-23.4937 l 7.80913,-7.14349 A 118.08802,118.08802 0 0 0 207.7837,87.054866 118.08802,118.08802 0 0 0 206.83752,83.9664 L 167.08797,44.21686 145.71105,65.626932 Z" id="path1261"/> <path id="path1098" d="M 93.720392,-2.5140349 A 120.13105,120.13105 0 0 0 -26.410684,117.61703 120.13105,120.13105 0 0 0 93.720392,237.7481 120.13105,120.13105 0 0 0 213.85147,117.61703 120.13105,120.13105 0 0 0 93.720392,-2.5140349 Z m 0,4.0860517 A 116.04495,116.04495 0 0 1 209.76537,117.61703 116.04495,116.04495 0 0 1 93.720392,233.662 116.04495,116.04495 0 0 1 -22.324583,117.61703 116.04495,116.04495 0 0 1 93.720392,1.5720168 Z" style="opacity:1;fill:#677821;fill-opacity:1;stroke:#333333;stroke-width:0;stroke-linecap:butt;stroke-linejoin:miter;stroke-miterlimit:4;stroke-dasharray:none;stroke-dashoffset:0;stroke-opacity:1"/> <path style="opacity:1;fill:#dde9af;fill-opacity:1;stroke:none;stroke-width:0.26499996;stroke-linecap:round;stroke-linejoin:round;stroke-miterlimit:4;stroke-dasharray:none;stroke-dashoffset:0;stroke-opacity:1" d="M 93.036373,34.132816 A 35.255854,35.255854 0 0 0 128.29223,69.38867 35.255854,35.255854 0 0 0 153.84661,58.396716 l -1.34406,-0.461639 -0.0296,-0.01283 A 33.950082,33.950082 0 0 1 128.29321,68.082786 33.950082,33.950082 0 0 1 94.343116,34.132703 Z m 0.03948,34.613163 a 20.892359,20.892359 0 0 0 20.892397,20.892346 20.892359,20.892359 0 0 0 14.13141,-5.539321 l -1.23183,-0.61463 -0.0247,-0.0099 a 19.586585,19.586585 0 0 1 -12.8741,4.858441 19.586585,19.586585 0 0 1 -19.566149,-19.007662 z m 0.0049,28.033288 a 9.140406,9.140406 0 0 0 -0.0148,0.34201 9.140406,9.140406 0 0 0 9.140437,9.140393 9.140406,9.140406 0 0 0 6.81705,-3.06802 l -1.29559,-0.52032 a 7.8346343,7.8346343 0 0 1 -5.52146,2.28258 7.8346343,7.8346343 0 0 1 -7.826982,-7.65356 z" id="path1116"/> <path id="path1218" d="M 94.404361,34.132816 A 35.255854,35.255854 0 0 1 59.148507,69.38867 35.255854,35.255854 0 0 1 33.594126,58.396716 l 1.344053,-0.461639 0.02961,-0.01283 A 33.950082,33.950082 0 0 0 59.14752,68.082786 33.950082,33.950082 0 0 0 93.097618,34.132703 Z M 94.36488,68.745979 A 20.892359,20.892359 0 0 1 73.472489,89.638325 20.892359,20.892359 0 0 1 59.341079,84.099004 l 1.231826,-0.61463 0.02468,-0.0099 a 19.586585,19.586585 0 0 0 12.874118,4.858411 19.586585,19.586585 0 0 0 19.566154,-19.007662 z m -0.0049,28.033288 a 9.140406,9.140406 0 0 1 0.01481,0.34201 9.140406,9.140406 0 0 1 -9.140439,9.140393 9.140406,9.140406 0 0 1 -6.817045,-3.06802 l 1.295589,-0.52032 a 7.8346343,7.8346343 0 0 0 5.521456,2.28258 7.8346343,7.8346343 0 0 0 7.826984,-7.65356 z" style="opacity:1;fill:#dde9af;fill-opacity:1;stroke:none;stroke-width:0.26499996;stroke-linecap:round;stroke-linejoin:round;stroke-miterlimit:4;stroke-dasharray:none;stroke-dashoffset:0;stroke-opacity:1"/> <path id="path1166" d="m 152.26897,58.101141 a 35.255854,35.255854 0 0 0 0,49.859319 35.255854,35.255854 0 0 0 25.84215,10.29716 l -0.62395,-1.27679 -0.01,-0.0296 a 33.950082,33.950082 0 0 1 -24.28229,-9.91305 33.950082,33.950082 0 0 1 0,-48.01266 z m -24.44815,24.50225 a 20.892359,20.892359 0 0 0 0,29.546269 20.892359,20.892359 0 0 0 13.90932,6.07553 l -0.43627,-1.30566 -0.01,-0.0247 a 19.586586,19.586586 0 0 1 -12.53877,-5.66798 19.586586,19.586586 0 0 1 -0.39482,-27.275833 z m -19.81884,19.826239 a 9.1404065,9.1404065 0 0 0 -0.25071,0.23245 9.1404065,9.1404065 0 0 0 0,12.92648 9.1404065,9.1404065 0 0 0 6.98983,2.65099 l -0.54825,-1.28404 a 7.8346343,7.8346343 0 0 1 -5.51825,-2.29023 7.8346343,7.8346343 0 0 1 -0.12289,-10.94643 z" style="opacity:1;fill:#dde9af;fill-opacity:1;stroke:none;stroke-width:0.26499996;stroke-linecap:round;stroke-linejoin:round;stroke-miterlimit:4;stroke-dasharray:none;stroke-dashoffset:0;stroke-opacity:1"/> <path style="opacity:1;fill:#dde9af;fill-opacity:1;stroke:none;stroke-width:0.26499996;stroke-linecap:round;stroke-linejoin:round;stroke-miterlimit:4;stroke-dasharray:none;stroke-dashoffset:0;stroke-opacity:1" d="m 35.171762,58.101092 a 35.255854,35.255854 0 0 1 0,49.859318 35.255854,35.255854 0 0 1 -25.8421521,10.29716 l 0.6239577,-1.27679 0.00987,-0.0296 a 33.950082,33.950082 0 0 0 24.2822834,-9.91305 33.950082,33.950082 0 0 0 0,-48.01266 z m 24.448156,24.50225 a 20.892359,20.892359 0 0 1 0,29.546268 20.892359,20.892359 0 0 1 -13.909326,6.07553 l 0.436272,-1.30566 0.0099,-0.0247 a 19.586586,19.586586 0 0 0 12.538771,-5.66798 19.586586,19.586586 0 0 0 0.394816,-27.275832 z m 19.818836,19.826238 a 9.1404065,9.1404065 0 0 1 0.250708,0.23245 9.1404065,9.1404065 0 0 1 0,12.92648 9.1404065,9.1404065 0 0 1 -6.989826,2.65099 l 0.548252,-1.28404 a 7.8346343,7.8346343 0 0 0 5.518247,-2.29023 7.8346343,7.8346343 0 0 0 0.122393,-10.94643 z" id="path1202"/> <path style="opacity:1;fill:#dde9af;fill-opacity:1;stroke:none;stroke-width:0.26499996;stroke-linecap:round;stroke-linejoin:round;stroke-miterlimit:4;stroke-dasharray:none;stroke-dashoffset:0;stroke-opacity:1" d="m 177.20463,116.93301 a 35.255854,35.255854 0 0 0 -35.25586,35.25585 35.255854,35.255854 0 0 0 10.99193,25.55438 l 0.46144,-1.34405 0.0148,-0.0296 a 33.950082,33.950082 0 0 1 -10.16055,-24.17973 33.950082,33.950082 0 0 1 33.9501,-33.9501 z m -34.6132,0.0395 a 20.892359,20.892359 0 0 0 -20.89234,20.89239 20.892359,20.892359 0 0 0 5.53932,14.13141 l 0.61463,-1.23183 0.01,-0.0247 a 19.586585,19.586585 0 0 1 -4.85841,-12.87412 19.586585,19.586585 0 0 1 19.00769,-19.56616 z m -28.03328,0.005 a 9.140406,9.140406 0 0 0 -0.34201,-0.0148 9.140406,9.140406 0 0 0 -9.14039,9.14044 9.140406,9.140406 0 0 0 3.06802,6.81704 l 0.52032,-1.29559 a 7.8346343,7.8346343 0 0 1 -2.28258,-5.52145 7.8346343,7.8346343 0 0 1 7.65356,-7.82699 z" id="path1172"/> <path id="path1196" d="m 10.236157,116.93301 a 35.255854,35.255854 0 0 1 35.255855,35.25585 35.255854,35.255854 0 0 1 -10.991931,25.55438 l -0.461441,-1.34405 -0.01481,-0.0296 a 33.950082,33.950082 0 0 0 10.16055,-24.17974 33.950082,33.950082 0 0 0 -33.950098,-33.9501 z m 34.613192,0.0395 a 20.892359,20.892359 0 0 1 20.892342,20.89239 20.892359,20.892359 0 0 1 -5.539321,14.13141 l -0.61463,-1.23183 -0.0099,-0.0247 A 19.586585,19.586585 0 0 0 64.436251,137.86566 19.586585,19.586585 0 0 0 45.428564,118.2995 Z m 28.033284,0.005 a 9.140406,9.140406 0 0 1 0.34201,-0.0148 9.140406,9.140406 0 0 1 9.14039,9.14044 9.140406,9.140406 0 0 1 -3.068018,6.81704 l -0.520318,-1.29559 a 7.8346343,7.8346343 0 0 0 2.28258,-5.52145 7.8346343,7.8346343 0 0 0 -7.653562,-7.82699 z" style="opacity:1;fill:#dde9af;fill-opacity:1;stroke:none;stroke-width:0.26499996;stroke-linecap:round;stroke-linejoin:round;stroke-miterlimit:4;stroke-dasharray:none;stroke-dashoffset:0;stroke-opacity:1"/> <path id="path1178" d="m 153.23627,176.16561 a 35.255854,35.255854 0 0 0 -49.85932,0 35.255854,35.255854 0 0 0 -10.297148,25.84215 l 1.276787,-0.62396 0.02961,-0.0148 a 33.950082,33.950082 0 0 1 9.913051,-24.28223 33.950082,33.950082 0 0 1 48.01266,0 z m -24.50224,-24.44816 a 20.892359,20.892359 0 0 0 -29.546273,0 20.892359,20.892359 0 0 0 -6.07553,13.90933 l 1.305657,-0.43628 0.02468,-0.01 a 19.586586,19.586586 0 0 1 5.667976,-12.53877 19.586586,19.586586 0 0 1 27.27583,-0.39481 z m -19.82624,-19.81884 a 9.1404065,9.1404065 0 0 0 -0.23245,-0.2507 9.1404065,9.1404065 0 0 0 -12.926481,0 9.1404065,9.1404065 0 0 0 -2.650994,6.98987 l 1.284041,-0.54825 a 7.8346343,7.8346343 0 0 1 2.29023,-5.5183 7.8346343,7.8346343 0 0 1 10.946424,-0.12239 z" style="opacity:1;fill:#dde9af;fill-opacity:1;stroke:none;stroke-width:0.26499996;stroke-linecap:round;stroke-linejoin:round;stroke-miterlimit:4;stroke-dasharray:none;stroke-dashoffset:0;stroke-opacity:1"/> <path style="opacity:1;fill:#dde9af;fill-opacity:1;stroke:none;stroke-width:0.26499996;stroke-linecap:round;stroke-linejoin:round;stroke-miterlimit:4;stroke-dasharray:none;stroke-dashoffset:0;stroke-opacity:1" d="m 34.204512,176.16561 a 35.255854,35.255854 0 0 1 49.859317,0 35.255854,35.255854 0 0 1 10.297201,25.84215 l -1.276786,-0.62396 -0.02961,-0.0148 a 33.950082,33.950082 0 0 0 -9.913046,-24.28223 33.950082,33.950082 0 0 0 -48.012711,0 z m 24.502294,-24.44816 a 20.892359,20.892359 0 0 1 29.54622,0 20.892359,20.892359 0 0 1 6.075531,13.90933 l -1.305608,-0.43628 -0.02468,-0.01 a 19.586586,19.586586 0 0 0 -5.667932,-12.53877 19.586586,19.586586 0 0 0 -27.275829,-0.39481 z m 19.82619,-19.81884 a 9.1404065,9.1404065 0 0 1 0.232448,-0.2507 9.1404065,9.1404065 0 0 1 12.926481,0 9.1404065,9.1404065 0 0 1 2.650944,6.98982 l -1.283992,-0.54825 a 7.8346343,7.8346343 0 0 0 -2.290279,-5.5183 7.8346343,7.8346343 0 0 0 -10.946379,-0.12239 z" id="path1190"/> <path style="fill:#89a02c;fill-opacity:1;stroke:#dde9af;stroke-width:1.32291663;stroke-linecap:round;stroke-linejoin:round;stroke-miterlimit:4;stroke-dasharray:none;stroke-opacity:1" d="M 93.720384,14.505836 V 220.72817 Z" id="path1108"/> <path id="path1110" d="M 196.83155,117.617 H -9.39078 Z" style="fill:#89a02c;fill-opacity:1;stroke:#dde9af;stroke-width:1.32291663;stroke-linecap:round;stroke-linejoin:round;stroke-miterlimit:4;stroke-dasharray:none;stroke-opacity:1"/> <path id="path1114" d="M 20.809799,190.52761 166.63097,44.706395 Z" style="fill:#89a02c;fill-opacity:1;stroke:#dde9af;stroke-width:1.32291663;stroke-linecap:round;stroke-linejoin:round;stroke-miterlimit:4;stroke-dasharray:none;stroke-opacity:1"/> <path style="fill:#89a02c;fill-opacity:1;stroke:#dde9af;stroke-width:1.32291663;stroke-linecap:round;stroke-linejoin:round;stroke-miterlimit:4;stroke-dasharray:none;stroke-opacity:1" d="M 166.63097,190.52761 20.809799,44.706395 Z" id="path1112"/> </g> </g> </svg>