<?xml version='1.0' encoding='utf-8'?>
<svg xmlns="http://www.w3.org/2000/svg" width="1000" height="1000" viewBox="0 0 264.58333 264.58334" version="1.1" id="svg8"> <defs id="defs2"/> <metadata id="metadata5"> </metadata> <g id="layer1" transform="translate(0,-32.41665)"> <g id="g7075" transform="translate(42.105993,42.808222)"> <path style="opacity:1;fill:#3e3748;fill-opacity:1;stroke:#333333;stroke-width:0;stroke-linecap:butt;stroke-linejoin:miter;stroke-miterlimit:4;stroke-dasharray:none;stroke-dashoffset:0;stroke-opacity:1" d="M 202.20705,121.73298 A 110.73174,110.73174 0 0 1 91.475328,232.46471 110.73174,110.73174 0 0 1 -19.256398,121.73298 110.73174,110.73174 0 0 1 91.475328,11.001226 110.73174,110.73174 0 0 1 202.20705,121.73298 Z" id="path1043"/> <path style="fill:#2f2b37;fill-opacity:1;stroke:none;stroke-width:0.26458332px;stroke-linecap:butt;stroke-linejoin:miter;stroke-opacity:1" d="M 135.5012,60.148998 37.530073,197.02205 70.996218,230.48819 a 110.73174,110.73174 0 0 0 20.478092,1.97536 110.73174,110.73174 0 0 0 110.48803,-105.851 z" id="path1091"/> <path style="opacity:1;fill:#1f1c24;fill-opacity:1;stroke:#333333;stroke-width:0;stroke-linecap:butt;stroke-linejoin:miter;stroke-miterlimit:4;stroke-dasharray:none;stroke-dashoffset:0;stroke-opacity:1" d="M 91.475328,9.0854704 A 112.64751,112.64751 0 0 0 -21.1722,121.73298 112.64751,112.64751 0 0 0 91.475328,234.38051 112.64751,112.64751 0 0 0 204.12286,121.73298 112.64751,112.64751 0 0 0 91.475328,9.0854704 Z m 0,3.8315116 A 108.81595,108.81595 0 0 1 200.2913,121.73298 108.81595,108.81595 0 0 1 91.475328,230.54896 108.81595,108.81595 0 0 1 -17.340642,121.73298 108.81595,108.81595 0 0 1 91.475328,12.916982 Z" id="path1045"/> <path style="opacity:1;fill:#7c6f91;fill-opacity:1;stroke:none;stroke-width:0;stroke-linecap:round;stroke-linejoin:round;stroke-miterlimit:4;stroke-dasharray:none;stroke-dashoffset:0;stroke-opacity:1" d="M 91.475328,41.124695 A 60.456201,60.456201 0 0 0 31.019132,101.58092 v 80.60826 a 20.152068,20.152068 0 0 0 20.152065,20.15207 20.152068,20.152068 0 0 0 20.152066,-20.15207 20.152068,20.152068 0 0 0 20.152065,20.15207 20.152068,20.152068 0 0 0 20.152112,-20.15207 20.152068,20.152068 0 0 0 20.15202,20.15207 20.152068,20.152068 0 0 0 20.15206,-20.15207 V 101.58092 A 60.456201,60.456201 0 0 0 91.475328,41.124695 Z" id="path1053"/> <path style="opacity:1;fill:#706583;fill-opacity:1;stroke:none;stroke-width:0;stroke-linecap:round;stroke-linejoin:round;stroke-miterlimit:4;stroke-dasharray:none;stroke-dashoffset:0;stroke-opacity:1" d="M 53.562474,84.761951 A 12.85651,12.85651 0 0 0 52.751767,89.19812 12.85651,12.85651 0 0 0 57.85754,99.440754 H 73.351838 A 12.85651,12.85651 0 0 0 78.464786,89.19812 12.85651,12.85651 0 0 0 77.649292,84.761951 Z" id="path1064"/> <path style="opacity:1;fill:#706583;fill-opacity:1;stroke:none;stroke-width:0;stroke-linecap:round;stroke-linejoin:round;stroke-miterlimit:4;stroke-dasharray:none;stroke-dashoffset:0;stroke-opacity:1" d="m 105.29462,84.761951 a 12.85651,12.85651 0 0 0 -0.81071,4.436169 12.85651,12.85651 0 0 0 5.10578,10.242634 h 15.49429 a 12.85651,12.85651 0 0 0 5.11295,-10.242634 12.85651,12.85651 0 0 0 -0.81549,-4.436169 z" id="circle1066"/> </g> </g> </svg>