<?xml version='1.0' encoding='utf-8'?>
<svg xmlns="http://www.w3.org/2000/svg" width="1000" height="1000" viewBox="0 0 264.58333 264.58334" version="1.1" id="svg8"> <defs id="defs2"/> <metadata id="metadata5"> </metadata> <g id="layer1" transform="translate(0,-32.41665)"> <g id="g7075" transform="translate(42.105993,42.808222)"> <path id="path1352" d="M 196.41189,94.931153 A 113.67427,113.67427 0 0 1 116.03207,234.15308 113.67427,113.67427 0 0 1 -23.189858,153.77326 113.67427,113.67427 0 0 1 57.189965,14.551282 113.67427,113.67427 0 0 1 196.41189,94.931153 Z" style="opacity:1;fill:#c837ab;fill-opacity:1;stroke:#333333;stroke-width:0;stroke-linecap:butt;stroke-linejoin:miter;stroke-miterlimit:4;stroke-dasharray:none;stroke-dashoffset:0;stroke-opacity:1"/> <path style="fill:#a02c89;stroke:none;stroke-width:0.26458332px;stroke-linecap:butt;stroke-linejoin:miter;stroke-opacity:1" d="M 5.018187,124.35258 115.03225,234.36664 a 113.67427,113.67427 0 0 0 0.99918,-0.2136 113.67427,113.67427 0 0 0 80.576,-81.39597 l -28.40451,-28.40449 z" id="path1391"/> <path id="path1354" d="M 86.611017,8.7112917 A 115.64094,115.64094 0 0 0 -29.029943,124.3522 115.64094,115.64094 0 0 0 86.611017,239.99316 115.64094,115.64094 0 0 0 202.25198,124.3522 115.64094,115.64094 0 0 0 86.611017,8.7112917 Z m 0,3.9333283 A 111.70757,111.70757 0 0 1 198.3186,124.3522 111.70757,111.70757 0 0 1 86.611017,236.05979 111.70757,111.70757 0 0 1 -25.096568,124.3522 111.70757,111.70757 0 0 1 86.611017,12.64462 Z" style="opacity:1;fill:#782167;fill-opacity:1;stroke:#333333;stroke-width:0;stroke-linecap:butt;stroke-linejoin:miter;stroke-miterlimit:4;stroke-dasharray:none;stroke-dashoffset:0;stroke-opacity:1"/> <path style="opacity:1;fill:#de87cd;fill-opacity:1;stroke:none;stroke-width:0.26499996;stroke-linecap:round;stroke-linejoin:round;stroke-miterlimit:4;stroke-dasharray:none;stroke-dashoffset:0;stroke-opacity:1" d="m 85.059235,73.71406 c -3.012207,0 -6.314447,0.615791 -9.790754,1.664185 -4.671403,1.226688 -9.080043,3.10057 -13.121498,5.525728 C 35.348293,94.872101 5.0182819,124.3522 5.0182819,124.3522 c 0,0 30.3300111,29.48011 57.1287011,43.44819 4.056325,2.43409 8.481972,4.31467 13.172521,5.54112 3.457446,1.03865 6.742298,1.64879 9.739731,1.64879 0.520396,0 1.035091,-0.0237 1.551782,-0.038 0.516643,0.019 1.031385,0.038 1.551781,0.038 2.997433,0 6.282237,-0.61014 9.739684,-1.64879 4.690548,-1.22645 9.116148,-3.10703 13.172568,-5.54112 26.79864,-13.96808 57.12865,-43.44819 57.12865,-43.44819 0,0 -30.33001,-29.480099 -57.12865,-43.448227 -4.04145,-2.425158 -8.45019,-4.29904 -13.121498,-5.525728 -3.476354,-1.048394 -6.778546,-1.664185 -9.790754,-1.664185 -0.520396,0 -1.035138,0.02375 -1.551781,0.03801 -0.516691,-0.019 -1.031386,-0.03801 -1.551782,-0.03801 z" id="path1373"/> <circle style="opacity:1;fill:#a02c89;fill-opacity:1;stroke:none;stroke-width:0.26499996;stroke-linecap:round;stroke-linejoin:round;stroke-miterlimit:4;stroke-dasharray:none;stroke-dashoffset:0;stroke-opacity:1" id="path1379" cx="86.611023" cy="124.35214" r="36.218998"/> <circle r="14.887566" cy="124.35214" cx="86.611023" id="circle1381" style="opacity:1;fill:#501644;fill-opacity:1;stroke:none;stroke-width:0.26499996;stroke-linecap:round;stroke-linejoin:round;stroke-miterlimit:4;stroke-dasharray:none;stroke-dashoffset:0;stroke-opacity:1"/> <circle style="opacity:0.5;fill:#eed7f4;fill-opacity:1;stroke:none;stroke-width:0.26499996;stroke-linecap:round;stroke-linejoin:round;stroke-miterlimit:4;stroke-dasharray:none;stroke-dashoffset:0;stroke-opacity:1" id="circle1383" cx="65.279587" cy="101.90972" r="10.443517"/> </g> </g> </svg>