<?xml version='1.0' encoding='utf-8'?>
<svg xmlns="http://www.w3.org/2000/svg" width="1000" height="1000" viewBox="0 0 264.58333 264.58334" version="1.1" id="svg8"> <defs id="defs2"/> <metadata id="metadata5"> </metadata> <g id="layer1" transform="translate(0,-32.41665)"> <g id="g7075" transform="translate(42.105993,42.808222)"> <path id="path1003" d="M 211.37056,123.22968 A 121.76616,121.76616 0 0 1 89.604424,244.99581 121.76616,121.76616 0 0 1 -32.161712,123.22968 121.76616,121.76616 0 0 1 89.604424,1.4635041 121.76616,121.76616 0 0 1 211.37056,123.22968 Z" style="opacity:1;fill:#afe9dd;fill-opacity:1;stroke:#333333;stroke-width:0;stroke-linecap:butt;stroke-linejoin:miter;stroke-miterlimit:4;stroke-dasharray:none;stroke-dashoffset:0;stroke-opacity:1"/> <path style="fill:#87decd;stroke:none;stroke-width:0.26458332px;stroke-linecap:butt;stroke-linejoin:miter;stroke-opacity:1" d="M 89.603406,1.4643895 A 121.76615,121.76615 0 0 0 15.633133,26.615539 l -8.709791,35.927954 -4.3759636,72.707947 28.8223286,28.82233 0.126205,24.69882 56.121949,56.122 a 121.76615,121.76615 0 0 0 1.985494,0.0998 A 121.76615,121.76615 0 0 0 211.36975,123.23059 121.76615,121.76615 0 0 0 103.76465,2.3742582 L 97.077149,1.8377841 A 121.76615,121.76615 0 0 0 89.603304,1.464359 Z" id="path1038"/> <path style="fill:#d5fff6;stroke:none;stroke-width:0.26458332px;stroke-linecap:butt;stroke-linejoin:miter;stroke-opacity:1" d="M 89.603406,1.4643895 A 121.76615,121.76615 0 0 0 23.596074,21.142974 l -0.07888,-0.184066 -1.535836,1.17551 a 121.76615,121.76615 0 0 0 -6.319321,4.462725 L 15.69766,26.946904 8.0976107,32.7666 -9.6191642,52.650304 2.5488033,135.25144 19.928946,70.290831 31.497337,188.77259 50.684148,31.575309 61.455716,98.224242 76.939828,24.169865 85.691705,78.364227 95.790008,24.169865 114.64024,137.94434 127.09486,23.496646 l 14.47427,82.133044 8.41525,-53.521117 15.14753,45.105824 16.69115,-53.281792 A 121.76615,121.76615 0 0 0 89.604831,1.4644099 Z" id="path1025"/> <path id="path1005" d="M 89.604424,-0.64315676 A 123.87282,123.87282 0 0 0 -34.268424,123.22968 123.87282,123.87282 0 0 0 89.604424,247.10252 123.87282,123.87282 0 0 0 213.47727,123.22968 123.87282,123.87282 0 0 0 89.604424,-0.64315676 Z m 0,4.21332166 A 119.65945,119.65945 0 0 1 209.2639,123.22968 119.65945,119.65945 0 0 1 89.604424,242.88915 119.65945,119.65945 0 0 1 -30.055052,123.22968 119.65945,119.65945 0 0 1 89.604424,3.5701649 Z" style="opacity:1;fill:#b7c8c4;fill-opacity:1;stroke:#333333;stroke-width:0;stroke-linecap:butt;stroke-linejoin:miter;stroke-miterlimit:4;stroke-dasharray:none;stroke-dashoffset:0;stroke-opacity:1"/> </g> </g> </svg>