<?xml version='1.0' encoding='utf-8'?>
<svg xmlns="http://www.w3.org/2000/svg" width="1000" height="1000" viewBox="0 0 264.58333 264.58334" version="1.1" id="svg8"> <defs id="defs2"/> <metadata id="metadata5"> </metadata> <g id="layer1" transform="translate(0,-32.41665)"> <g id="g7075" transform="translate(42.105993,42.808222)"> <path id="path1843" d="M 203.14333,90.407944 A 121.03054,121.03054 0 0 1 117.56184,238.63943 121.03054,121.03054 0 0 1 -30.66965,153.05793 121.03054,121.03054 0 0 1 54.911846,4.8263982 121.03054,121.03054 0 0 1 203.14333,90.407944 Z" style="opacity:1;fill:#deaa87;fill-opacity:1;stroke:#333333;stroke-width:0;stroke-linecap:butt;stroke-linejoin:miter;stroke-miterlimit:4;stroke-dasharray:none;stroke-dashoffset:0;stroke-opacity:1"/> <path style="fill:#d38d5f;stroke:none;stroke-width:0.26458335px;stroke-linecap:butt;stroke-linejoin:miter;stroke-opacity:1" d="M 80.241129,22.416062 67.393862,138.04653 19.348046,90.00071 21.972381,224.16884 a 121.03054,121.03054 0 0 0 95.589809,14.47049 121.03054,121.03054 0 0 0 87.50507,-94.74292 l -92.37215,-92.3721 0.71882,4.064601 z" id="path2649"/> <path style="fill:#a05a2c;stroke:none;stroke-width:0.26458335px;stroke-linecap:butt;stroke-linejoin:miter;stroke-opacity:1" d="M 80.241129,22.416062 33.734871,135.50322 19.348046,90.00071 -14.182922,189.02517 a 121.03054,121.03054 0 0 0 131.745112,49.61416 121.03054,121.03054 0 0 0 78.52898,-66.18358 L 173.25365,132.49204 160.53971,155.24332 112.69511,51.52431 99.31203,76.283032 Z" id="path2632"/> <path id="path1845" d="M 86.236841,-1.3915194 A 123.12448,123.12448 0 0 0 -36.887668,121.73294 123.12448,123.12448 0 0 0 86.236841,244.85745 123.12448,123.12448 0 0 0 209.36135,121.73294 123.12448,123.12448 0 0 0 86.236841,-1.3915194 Z m 0,4.1878683 A 118.93657,118.93657 0 0 1 205.17343,121.73294 118.93657,118.93657 0 0 1 86.236841,240.66953 118.93657,118.93657 0 0 1 -32.69975,121.73294 118.93657,118.93657 0 0 1 86.236841,2.7963489 Z" style="opacity:1;fill:#502d16;fill-opacity:1;stroke:#333333;stroke-width:0;stroke-linecap:butt;stroke-linejoin:miter;stroke-miterlimit:4;stroke-dasharray:none;stroke-dashoffset:0;stroke-opacity:1"/> <path style="fill:#c87137;stroke:none;stroke-width:0.26458335px;stroke-linecap:butt;stroke-linejoin:miter;stroke-opacity:1" d="m 11.882731,112.04739 7.465315,-22.04668 7.193388,22.75128 -3.411236,-2.60071 -3.075575,2.60238 -4.140169,-3.19388 z" id="path2639"/> <path style="fill:#c87137;fill-opacity:1;stroke:none;stroke-width:0.26458335px;stroke-linecap:butt;stroke-linejoin:miter;stroke-opacity:1" d="m 50.605262,94.480182 29.635867,-72.06412 19.070901,53.86697 13.38308,-24.758722 18.2967,39.664111 -9.7984,-5.050237 -7.33401,6.151099 -9.69986,-5.204764 -7.33406,4.731622 -8.280339,-5.204815 -5.678008,6.15115 -6.151099,-5.677957 -8.753582,7.097433 -8.043768,-5.914528 z" id="path2641"/> </g> </g> </svg>