<?xml version='1.0' encoding='utf-8'?>
<svg xmlns="http://www.w3.org/2000/svg" width="1000" height="1000" viewBox="0 0 264.58333 264.58334" version="1.1" id="svg8"> <defs id="defs2"/> <metadata id="metadata5"> </metadata> <g id="layer1" transform="translate(0,-32.41665)"> <g id="g7075" transform="translate(42.105993,42.808222)"> <path style="opacity:1;fill:#333333;fill-opacity:1;stroke:#333333;stroke-width:0;stroke-linecap:butt;stroke-linejoin:miter;stroke-miterlimit:4;stroke-dasharray:none;stroke-dashoffset:0;stroke-opacity:1" d="M 209.89299,121.73296 A 120.66273,120.66273 0 0 1 89.230281,242.39567 120.66273,120.66273 0 0 1 -31.43248,121.73296 120.66273,120.66273 0 0 1 89.230281,1.0702466 120.66273,120.66273 0 0 1 209.89299,121.73296 Z" id="path1433"/> <path style="fill:#252525;fill-opacity:1;stroke:none;stroke-width:0.26458329px;stroke-linecap:butt;stroke-linejoin:miter;stroke-opacity:1" d="m 116.51146,33.895558 2.1317,2.350563 3.08539,3.502386 6.33764,11.174284 3.08545,15.510569 -12.4981,24.339504 -56.79652,-56.79652 -2.837839,3.187069 -3.335615,4.753238 -4.669841,9.339697 -25.01706,91.729172 12.943724,45.76296 53.531257,53.53127 A 120.66273,120.66273 0 0 0 209.62961,127.01371 Z" id="path1533"/> <path style="opacity:1;fill:#000000;fill-opacity:1;stroke:#333333;stroke-width:0;stroke-linecap:butt;stroke-linejoin:miter;stroke-miterlimit:4;stroke-dasharray:none;stroke-dashoffset:0;stroke-opacity:1" d="M 89.230281,-1.0173241 A 122.75031,122.75031 0 0 0 -33.520101,121.73296 122.75031,122.75031 0 0 0 89.230281,244.48329 122.75031,122.75031 0 0 0 211.98061,121.73296 122.75031,122.75031 0 0 0 89.230281,-1.0173241 Z m 0,4.1751413 A 118.57512,118.57512 0 0 1 207.80542,121.73296 118.57512,118.57512 0 0 1 89.230281,240.3081 118.57512,118.57512 0 0 1 -29.344909,121.73296 118.57512,118.57512 0 0 1 89.230281,3.1578172 Z" id="path1435"/> <path style="opacity:1;fill:#000000;fill-opacity:1;stroke:none;stroke-width:2.64583325;stroke-linecap:round;stroke-linejoin:round;stroke-miterlimit:4;stroke-dasharray:none;stroke-dashoffset:0;stroke-opacity:1" d="M 116.51197,33.894625 A 36.365546,36.365546 0 0 1 125.59436,57.875989 36.365546,36.365546 0 0 1 89.230281,94.240121 36.365546,36.365546 0 0 1 52.866099,57.875989 36.365546,36.365546 0 0 1 61.858079,33.976495 C 36.156659,57.521485 18.087527,108.8395 18.087527,138.42857 c 0,39.29101 31.851728,71.14269 71.142754,71.14272 39.290979,-3e-5 71.142709,-31.85171 71.142709,-71.14272 0,-29.62415 -18.11104,-81.027058 -43.86102,-104.533945 z M 40.716012,134.65428 77.196481,171.13475 a 25.793919,25.793919 0 0 1 -36.480469,0 25.793919,25.793919 0 0 1 0,-36.48047 z m 97.028488,0 a 25.793919,25.793919 0 0 1 0,36.48047 25.793919,25.793919 0 0 1 -36.48047,0 z" id="path1517"/> </g> </g> </svg>