<?xml version='1.0' encoding='utf-8'?>
<svg xmlns="http://www.w3.org/2000/svg" width="1000" height="1000" viewBox="0 0 264.58333 264.58334" version="1.1" id="svg8"> <defs id="defs2"/> <metadata id="metadata5"> </metadata> <g id="layer1" transform="translate(0,-32.41665)"> <g id="g7075" transform="translate(42.105993,42.808222)"> <path style="opacity:1;fill:#0044aa;fill-opacity:1;stroke:#333333;stroke-width:0;stroke-linecap:butt;stroke-linejoin:miter;stroke-miterlimit:4;stroke-dasharray:none;stroke-dashoffset:0;stroke-opacity:1" d="M 206.61446,116.1203 A 115.5133,115.5133 0 0 1 91.10118,231.63358 115.5133,115.5133 0 0 1 -24.412149,116.1203 115.5133,115.5133 0 0 1 91.10118,0.60702255 115.5133,115.5133 0 0 1 206.61446,116.1203 Z" id="path1589"/> <path style="fill:#003380;stroke:none;stroke-width:0.26458332px;stroke-linecap:butt;stroke-linejoin:miter;stroke-opacity:1" d="M 91.10197,32.191139 47.870773,182.16687 97.124245,231.42033 a 115.5133,115.5133 0 0 0 105.901325,-87.3056 z" id="path1610"/> <path style="opacity:1;fill:#002255;fill-opacity:1;stroke:#333333;stroke-width:0;stroke-linecap:butt;stroke-linejoin:miter;stroke-miterlimit:4;stroke-dasharray:none;stroke-dashoffset:0;stroke-opacity:1" d="M 91.10118,-1.3914584 A 117.51179,117.51179 0 0 0 -26.410678,116.1203 117.51179,117.51179 0 0 0 91.10118,233.63211 117.51179,117.51179 0 0 0 208.61299,116.1203 117.51179,117.51179 0 0 0 91.10118,-1.3914584 Z m 0,3.9969619 A 113.51478,113.51478 0 0 1 204.61598,116.1203 113.51478,113.51478 0 0 1 91.10118,229.6351 113.51478,113.51478 0 0 1 -22.413668,116.1203 113.51478,113.51478 0 0 1 91.10118,2.6055035 Z" id="path1591"/> <path style="opacity:1;fill:#0066ff;fill-opacity:1;stroke:none;stroke-width:2.64583349;stroke-linecap:round;stroke-linejoin:round;stroke-miterlimit:4;stroke-dasharray:none;stroke-dashoffset:0;stroke-opacity:1" d="m 152.29596,138.85468 c 0,33.79694 -27.39783,61.19477 -61.19478,61.19479 -33.796955,2e-5 -61.194832,-27.39783 -61.194832,-61.19479 0,-33.79696 61.194832,-106.663553 61.194832,-106.663553 0,0 61.19478,72.866613 61.19478,106.663553 z" id="path1601"/> <path id="path1604" d="m 130.67484,140.10322 c 0,25.92152 -21.01357,46.93506 -46.93512,46.93507 -25.921501,0 -46.935023,-21.01354 -46.935023,-46.93507 0,-25.92151 46.935023,-81.808582 46.935023,-81.808582 0,0 46.93512,55.887082 46.93512,81.808582 z" style="opacity:1;fill:#2a7fff;fill-opacity:1;stroke:none;stroke-width:2.64583349;stroke-linecap:round;stroke-linejoin:round;stroke-miterlimit:4;stroke-dasharray:none;stroke-dashoffset:0;stroke-opacity:1"/> </g> </g> </svg>