<?xml version='1.0' encoding='utf-8'?>
<svg xmlns="http://www.w3.org/2000/svg" width="1000" height="1000" viewBox="0 0 264.58333 264.58334" version="1.1" id="svg8"> <defs id="defs2"/> <metadata id="metadata5"> </metadata> <g id="layer1" transform="translate(0,-32.41665)"> <g id="g7075" transform="translate(42.105993,42.808222)"> <path style="opacity:1;fill:#f4e3d7;fill-opacity:1;stroke:#333333;stroke-width:0;stroke-linecap:butt;stroke-linejoin:miter;stroke-miterlimit:4;stroke-dasharray:none;stroke-dashoffset:0;stroke-opacity:1" d="M 196.91834,90.733229 A 111.09957,111.09957 0 0 1 118.3591,226.80181 111.09957,111.09957 0 0 1 -17.709481,148.24257 111.09957,111.09957 0 0 1 60.849757,12.173944 111.09957,111.09957 0 0 1 196.91834,90.733229 Z" id="path1839"/> <path style="fill:#e9c6af;stroke:none;stroke-width:0.26458332px;stroke-linecap:butt;stroke-linejoin:miter;stroke-opacity:1" d="m 150.28596,43.523004 -5.06755,1.689183 -0.61425,4.299739 -0.37671,4.50609 4.61406,4.616457 -42.78144,71.036867 -20.730883,54.36099 43.304513,13.51346 37.19322,2.62975 A 111.09957,111.09957 0 0 0 196.91844,90.733755 111.09957,111.09957 0 0 0 192.75547,78.590347 l -31.9889,-31.988902 z" id="path2856"/> <path style="opacity:1;fill:#c8beb7;fill-opacity:1;stroke:none;stroke-width:1.32291651;stroke-linecap:round;stroke-linejoin:round;stroke-miterlimit:4;stroke-dasharray:none;stroke-dashoffset:0;stroke-opacity:1" d="m 94.530077,110.03507 -12.438524,21.54415 a 20.116633,24.877059 30 0 0 4.982992,31.60248 20.116633,24.877059 30 0 0 29.860045,-11.48584 l 12.43852,-21.54416 -17.42152,-10.05831 z" id="path2748"/> <rect style="opacity:1;fill:#deaa87;fill-opacity:1;stroke:none;stroke-width:1.32291663;stroke-linecap:round;stroke-linejoin:round;stroke-miterlimit:4;stroke-dasharray:none;stroke-dashoffset:0;stroke-opacity:1" id="rect2753" width="5.5282354" height="73.095558" x="154.23552" y="-25.0674" transform="rotate(30)"/> <path style="opacity:1;fill:#c8beb7;fill-opacity:1;stroke:none;stroke-width:1.32291663;stroke-linecap:round;stroke-linejoin:round;stroke-miterlimit:4;stroke-dasharray:none;stroke-dashoffset:0;stroke-opacity:1" d="m 153.51771,41.956288 c -3.68379,-2.126841 -8.36164,-0.873415 -10.48848,2.810381 -2.12684,3.683797 -0.87342,8.361645 2.81038,10.488487 l 5.31955,3.071241 c 3.68379,2.126842 8.36164,0.873416 10.48848,-2.810381 2.12684,-3.683797 0.87342,-8.361645 -2.81038,-10.488486 z m 0.97059,4.461372 c 2.8881,1.667445 4.25474,4.670808 3.06371,6.733739 -1.19104,2.062931 -4.47535,2.381071 -7.36345,0.713627 -2.88809,-1.667445 -4.25473,-4.670809 -3.0637,-6.73374 1.19104,-2.062931 4.47534,-2.381071 7.36344,-0.713626 z" id="rect2755"/> <path style="opacity:1;fill:#ffb380;fill-opacity:1;stroke:none;stroke-width:1.32291663;stroke-linecap:round;stroke-linejoin:round;stroke-miterlimit:4;stroke-dasharray:none;stroke-dashoffset:0;stroke-opacity:1" d="m 71.962086,128.67319 a 55.435901,55.435901 0 0 0 -55.143192,50.24839 v -0.50387 a 5.681797,5.681797 0 0 1 -5.681798,5.6818 h 5.389072 a 55.435901,55.435901 0 0 0 0,0.01 H -0.6991757 A 111.09956,111.09956 0 0 0 31.73841,214.26989 l 1.223706,-0.50867 a 111.09955,111.09955 0 0 0 42.987781,15.70653 l -0.01437,0.20394 a 111.09956,111.09956 0 0 0 42.423923,-2.86969 111.09956,111.09956 0 0 0 61.52081,-42.69266 h -52.48224 a 55.435901,55.435901 0 0 0 0,-0.01 h 5.44425 a 5.6817973,5.6817973 0 0 1 -0.47748,-0.024 5.6817976,5.6817976 0 0 1 -0.0144,0 5.6817975,5.6817975 0 0 1 -0.23994,-0.0288 5.6817973,5.6817973 0 0 1 -0.0216,-0.002 5.6817973,5.6817973 0 0 1 -0.30713,-0.048 5.6817975,5.6817975 0 0 1 -0.22553,-0.0504 5.6817973,5.6817973 0 0 1 -0.32633,-0.084 5.6817976,5.6817976 0 0 1 -0.002,0 5.6817975,5.6817975 0 0 1 -0.23274,-0.0768 5.6817973,5.6817973 0 0 1 -0.036,-0.0144 5.6817973,5.6817973 0 0 1 -0.24955,-0.0912 5.6817975,5.6817975 0 0 1 -0.26873,-0.12002 5.6817973,5.6817973 0 0 1 -0.0144,-0.007 5.6817973,5.6817973 0 0 1 -0.23274,-0.11278 5.6817975,5.6817975 0 0 1 -0.21355,-0.12002 5.6817973,5.6817973 0 0 1 -0.0288,-0.0192 5.6817973,5.6817973 0 0 1 -0.26394,-0.16076 5.6817973,5.6817973 0 0 1 -0.007,-0.005 5.6817975,5.6817975 0 0 1 -0.17036,-0.12236 5.6817973,5.6817973 0 0 1 -0.0192,-0.0144 5.6817973,5.6817973 0 0 1 -0.24235,-0.18476 5.6817975,5.6817975 0 0 1 -0.21355,-0.18715 5.6817973,5.6817973 0 0 1 -0.19434,-0.17755 5.6817973,5.6817973 0 0 1 -0.0123,-0.0123 5.6817975,5.6817975 0 0 1 -0.22074,-0.23993 5.6817973,5.6817973 0 0 1 -0.0123,-0.0123 5.6817973,5.6817973 0 0 1 -0.13677,-0.15835 5.6817973,5.6817973 0 0 1 -0.002,-0.002 5.6817975,5.6817975 0 0 1 -0.17996,-0.23513 5.6817973,5.6817973 0 0 1 -0.002,-0.005 5.6817973,5.6817973 0 0 1 -0.17035,-0.23754 5.6817975,5.6817975 0 0 1 -0.13917,-0.22794 5.6817973,5.6817973 0 0 1 -0.002,-0.005 5.6817973,5.6817973 0 0 1 -0.13676,-0.23515 5.6817973,5.6817973 0 0 1 -0.007,-0.0144 5.6817975,5.6817975 0 0 1 -0.11757,-0.24473 5.6817973,5.6817973 0 0 1 -0.005,-0.0123 5.6817973,5.6817973 0 0 1 -0.11511,-0.25673 5.6817975,5.6817975 0 0 1 -0.10074,-0.27594 5.6817973,5.6817973 0 0 1 -0.0816,-0.23995 5.6817973,5.6817973 0 0 1 -0.002,-0.01 5.6817975,5.6817975 0 0 1 -0.0408,-0.16076 5.6817976,5.6817976 0 0 1 -0.036,-0.14396 5.6817973,5.6817973 0 0 1 -0.0552,-0.23994 5.6817973,5.6817973 0 0 1 -0.002,-0.01 5.6817975,5.6817975 0 0 1 -0.0383,-0.25434 5.6817976,5.6817976 0 0 1 -0.007,-0.0576 5.6817973,5.6817973 0 0 1 -0.0287,-0.24474 5.6817973,5.6817973 0 0 1 -0.002,-0.01 5.6817975,5.6817975 0 0 1 -0.0239,-0.48708 v 0.92617 A 55.435901,55.435901 0 0 0 71.962086,128.67319 Z" id="path2738"/> <path style="opacity:1;fill:#d38d5f;fill-opacity:1;stroke:#333333;stroke-width:0;stroke-linecap:butt;stroke-linejoin:miter;stroke-miterlimit:4;stroke-dasharray:none;stroke-dashoffset:0;stroke-opacity:1" d="M 89.604429,6.4662282 A 113.0217,113.0217 0 0 0 -23.41729,119.4879 113.0217,113.0217 0 0 0 89.604429,232.50962 113.0217,113.0217 0 0 0 202.62615,119.4879 113.0217,113.0217 0 0 0 89.604429,6.4662282 Z m 0,3.8442388 A 109.17741,109.17741 0 0 1 198.78186,119.4879 109.17741,109.17741 0 0 1 89.604429,228.66533 109.17741,109.17741 0 0 1 -19.573004,119.4879 109.17741,109.17741 0 0 1 89.604429,10.310467 Z" id="path1841"/> </g> </g> </svg>