<?xml version='1.0' encoding='utf-8'?>
<svg xmlns="http://www.w3.org/2000/svg" width="1000" height="1000" viewBox="0 0 264.58333 264.58334" version="1.1" id="svg8"> <defs id="defs2"/> <metadata id="metadata5"> </metadata> <g id="layer1" transform="translate(0,-32.41665)"> <g id="g7075" transform="translate(42.105993,42.808222)"> <path style="opacity:1;fill:#ffd5f6;fill-opacity:1;stroke:#333333;stroke-width:0;stroke-linecap:butt;stroke-linejoin:miter;stroke-miterlimit:4;stroke-dasharray:none;stroke-dashoffset:0;stroke-opacity:1" d="M 203.26046,89.515499 A 111.46739,111.46739 0 0 1 124.44114,226.03456 111.46739,111.46739 0 0 1 -12.077921,147.21524 111.46739,111.46739 0 0 1 66.741401,10.69613 111.46739,111.46739 0 0 1 203.26046,89.515499 Z" id="path1442"/> <path style="fill:#ffaaee;stroke:none;stroke-width:0.26458332px;stroke-linecap:butt;stroke-linejoin:miter;stroke-opacity:1" d="M 127.78552,42.230215 40.037557,192.4995 75.384704,227.84663 A 111.46738,111.46738 0 0 0 124.44171,226.0339 111.46738,111.46738 0 0 0 206.9633,121.408 Z" id="path993"/> <path style="opacity:1;fill:#d35f8d;fill-opacity:1;stroke:#333333;stroke-width:0;stroke-linecap:butt;stroke-linejoin:miter;stroke-miterlimit:4;stroke-dasharray:none;stroke-dashoffset:0;stroke-opacity:1" d="M 95.59127,4.9695178 A 113.39587,113.39587 0 0 0 -17.804626,118.36537 113.39587,113.39587 0 0 0 95.59127,231.76126 113.39587,113.39587 0 0 0 208.98717,118.36537 113.39587,113.39587 0 0 0 95.59127,4.9695178 Z m 0,3.8569662 A 109.53886,109.53886 0 0 1 205.13015,118.36537 109.53886,109.53886 0 0 1 95.59127,227.90425 109.53886,109.53886 0 0 1 -13.947613,118.36537 109.53886,109.53886 0 0 1 95.59127,8.826484 Z" id="path1444"/> <path d="m 178.5907,113.34675 -3.28367,-2.2813 -0.0845,3.99745 -1.31563,-3.7757 -2.41799,3.18436 1.15494,-3.82792 -3.82791,1.15494 3.18435,-2.41799 -3.7757,-1.31563 3.99746,-0.0845 -2.2813,-3.28366 3.28366,2.2813 0.0845,-3.99746 1.31563,3.7757 2.41799,-3.18435 -1.15494,3.82791 3.82792,-1.15494 -3.18436,2.41799 3.7757,1.31563 -3.99745,0.0845 z" id="path1481" style="opacity:1;fill:#ffdbe9;fill-opacity:1;stroke:none;stroke-width:0.26499999;stroke-linecap:round;stroke-linejoin:round;stroke-miterlimit:4;stroke-dasharray:none;stroke-dashoffset:0;stroke-opacity:1"/> <path style="opacity:1;fill:#ffdbe9;fill-opacity:1;stroke:none;stroke-width:0.26499999;stroke-linecap:round;stroke-linejoin:round;stroke-miterlimit:4;stroke-dasharray:none;stroke-dashoffset:0;stroke-opacity:1" id="path1513" d="m 138.2241,127.52116 -3.28366,-2.2813 -0.0845,3.99746 -1.31563,-3.7757 -2.41799,3.18435 1.15494,-3.82791 -3.82791,1.15494 3.18435,-2.418 -3.7757,-1.31562 3.99745,-0.0845 -2.2813,-3.28367 3.28367,2.2813 0.0845,-3.99745 1.31563,3.7757 2.41799,-3.18436 -1.15494,3.82792 3.82791,-1.15494 -3.18435,2.41799 3.7757,1.31563 -3.99746,0.0845 z"/> <path d="m 153.93939,162.95749 -3.28366,-2.2813 -0.0845,3.99745 -1.31563,-3.7757 -2.41799,3.18436 1.15493,-3.82792 -3.82791,1.15494 3.18436,-2.41799 -3.7757,-1.31563 3.99745,-0.0845 -2.2813,-3.28366 3.28367,2.2813 0.0845,-3.99746 1.31562,3.7757 2.41799,-3.18435 -1.15493,3.82791 3.82791,-1.15494 -3.18435,2.418 3.7757,1.31562 -3.99746,0.0845 z" id="path1515" style="opacity:1;fill:#ffdbe9;fill-opacity:1;stroke:none;stroke-width:0.26499999;stroke-linecap:round;stroke-linejoin:round;stroke-miterlimit:4;stroke-dasharray:none;stroke-dashoffset:0;stroke-opacity:1"/> <path style="opacity:1;fill:#ffdbe9;fill-opacity:1;stroke:none;stroke-width:0.26499999;stroke-linecap:round;stroke-linejoin:round;stroke-miterlimit:4;stroke-dasharray:none;stroke-dashoffset:0;stroke-opacity:1" id="path1518" d="m 129.59617,207.63791 -3.28367,-2.2813 -0.0845,3.99745 -1.31563,-3.7757 -2.41799,3.18436 1.15494,-3.82792 -3.82791,1.15494 3.18435,-2.41799 -3.7757,-1.31563 3.99746,-0.0845 -2.2813,-3.28366 3.28366,2.2813 0.0845,-3.99746 1.31563,3.7757 2.41799,-3.18435 -1.15494,3.82791 3.82792,-1.15494 -3.18436,2.418 3.7757,1.31562 -3.99745,0.0845 z"/> <path d="m 114.80546,177.74827 -3.28367,-2.2813 -0.0845,3.99746 -1.31563,-3.7757 -2.41799,3.18435 1.15494,-3.82791 -3.82791,1.15494 3.18435,-2.41799 -3.7757,-1.31563 3.99746,-0.0845 -2.2813,-3.28367 3.28366,2.2813 0.0845,-3.99745 1.31563,3.7757 2.41799,-3.18435 -1.15494,3.82791 3.82791,-1.15494 -3.18435,2.41799 3.7757,1.31563 -3.99745,0.0845 z" id="path1520" style="opacity:1;fill:#ffdbe9;fill-opacity:1;stroke:none;stroke-width:0.26499999;stroke-linecap:round;stroke-linejoin:round;stroke-miterlimit:4;stroke-dasharray:none;stroke-dashoffset:0;stroke-opacity:1"/> <path style="opacity:1;fill:#ff80b2;fill-opacity:1;stroke:none;stroke-width:0.26499999;stroke-linecap:round;stroke-linejoin:round;stroke-miterlimit:4;stroke-dasharray:none;stroke-dashoffset:0;stroke-opacity:1" d="M 127.78552,42.230215 99.354695,68.22961 66.138071,48.708398 82.079548,83.783506 53.249114,109.34236 l 34.668263,-3.91435 -48.284249,83.63378 0.01233,0.007 a 2.9184323,2.9184323 0 0 0 -0.387592,1.44442 2.9184323,2.9184323 0 0 0 2.917713,2.92011 2.9184323,2.9184323 0 0 0 2.518091,-1.44922 l 0.01233,0.005 48.284248,-83.63379 13.943382,31.98166 7.72037,-37.74727 38.34671,-3.731392 -33.51514,-19.006037 z" id="path983"/> </g> </g> </svg>