<?xml version="1.0" encoding="UTF-8" standalone="no"?>
<svg
   xmlns:dc="http://purl.org/dc/elements/1.1/"
   xmlns:cc="http://creativecommons.org/ns#"
   xmlns:rdf="http://www.w3.org/1999/02/22-rdf-syntax-ns#"
   xmlns:svg="http://www.w3.org/2000/svg"
   xmlns="http://www.w3.org/2000/svg"
   xmlns:sodipodi="http://sodipodi.sourceforge.net/DTD/sodipodi-0.dtd"
   xmlns:inkscape="http://www.inkscape.org/namespaces/inkscape"
   height="930.70477"
   id="svg8"
   version="1.1"
   viewBox="0 0 246.24902 246.24898"
   width="930.70496"
   sodipodi:docname="type-rock.svg"
   inkscape:version="0.92.2 5c3e80d, 2017-08-06">
  <metadata
     id="metadata14">
    <rdf:RDF>
      <cc:Work
         rdf:about="">
        <dc:format>image/svg+xml</dc:format>
        <dc:type
           rdf:resource="http://purl.org/dc/dcmitype/StillImage" />
        <dc:title></dc:title>
      </cc:Work>
    </rdf:RDF>
  </metadata>
  <sodipodi:namedview
     pagecolor="#ffffff"
     bordercolor="#666666"
     borderopacity="1"
     objecttolerance="10"
     gridtolerance="10"
     guidetolerance="10"
     inkscape:pageopacity="0"
     inkscape:pageshadow="2"
     inkscape:window-width="640"
     inkscape:window-height="480"
     id="namedview12"
     showgrid="false"
     fit-margin-top="0"
     fit-margin-left="0"
     fit-margin-right="0"
     fit-margin-bottom="0"
     inkscape:zoom="0.236"
     inkscape:cx="480.2772"
     inkscape:cy="464.72071"
     inkscape:window-x="0"
     inkscape:window-y="0"
     inkscape:window-maximized="0"
     inkscape:current-layer="svg8" />
  <defs
     id="defs2" />
  <g
     id="layer1"
     transform="translate(-5.2183245,-41.416702)">
    <g
       id="g7075"
       transform="translate(42.105993,42.808222)">
      <path
         style="opacity:1;fill:#deaa87;fill-opacity:1;stroke:#333333;stroke-width:0;stroke-linecap:butt;stroke-linejoin:miter;stroke-miterlimit:4;stroke-dasharray:none;stroke-dashoffset:0;stroke-opacity:1"
         d="M 203.14333,90.407944 A 121.03054,121.03054 0 0 1 117.56184,238.63943 121.03054,121.03054 0 0 1 -30.66965,153.05793 121.03054,121.03054 0 0 1 54.911846,4.8263982 121.03054,121.03054 0 0 1 203.14333,90.407944 Z"
         id="path1843"
         inkscape:connector-curvature="0" />
      <path
         style="fill:#d38d5f;stroke:none;stroke-width:0.26458335px;stroke-linecap:butt;stroke-linejoin:miter;stroke-opacity:1"
         d="M 80.241129,22.416062 67.393862,138.04653 19.348046,90.00071 21.972381,224.16884 a 121.03054,121.03054 0 0 0 95.589809,14.47049 121.03054,121.03054 0 0 0 87.50507,-94.74292 l -92.37215,-92.3721 0.71882,4.064601 z"
         id="path2649"
         inkscape:connector-curvature="0" />
      <path
         style="fill:#a05a2c;stroke:none;stroke-width:0.26458335px;stroke-linecap:butt;stroke-linejoin:miter;stroke-opacity:1"
         d="M 80.241129,22.416062 33.734871,135.50322 19.348046,90.00071 -14.182922,189.02517 a 121.03054,121.03054 0 0 0 131.745112,49.61416 121.03054,121.03054 0 0 0 78.52898,-66.18358 L 173.25365,132.49204 160.53971,155.24332 112.69511,51.52431 99.31203,76.283032 Z"
         id="path2632"
         inkscape:connector-curvature="0" />
      <path
         style="opacity:1;fill:#502d16;fill-opacity:1;stroke:#333333;stroke-width:0;stroke-linecap:butt;stroke-linejoin:miter;stroke-miterlimit:4;stroke-dasharray:none;stroke-dashoffset:0;stroke-opacity:1"
         d="M 86.236841,-1.3915194 A 123.12448,123.12448 0 0 0 -36.887668,121.73294 123.12448,123.12448 0 0 0 86.236841,244.85745 123.12448,123.12448 0 0 0 209.36135,121.73294 123.12448,123.12448 0 0 0 86.236841,-1.3915194 Z m 0,4.1878683 A 118.93657,118.93657 0 0 1 205.17343,121.73294 118.93657,118.93657 0 0 1 86.236841,240.66953 118.93657,118.93657 0 0 1 -32.69975,121.73294 118.93657,118.93657 0 0 1 86.236841,2.7963489 Z"
         id="path1845"
         inkscape:connector-curvature="0" />
      <path
         style="fill:#c87137;stroke:none;stroke-width:0.26458335px;stroke-linecap:butt;stroke-linejoin:miter;stroke-opacity:1"
         d="m 11.882731,112.04739 7.465315,-22.04668 7.193388,22.75128 -3.411236,-2.60071 -3.075575,2.60238 -4.140169,-3.19388 z"
         id="path2639"
         inkscape:connector-curvature="0" />
      <path
         style="fill:#c87137;fill-opacity:1;stroke:none;stroke-width:0.26458335px;stroke-linecap:butt;stroke-linejoin:miter;stroke-opacity:1"
         d="m 50.605262,94.480182 29.635867,-72.06412 19.070901,53.86697 13.38308,-24.758722 18.2967,39.664111 -9.7984,-5.050237 -7.33401,6.151099 -9.69986,-5.204764 -7.33406,4.731622 -8.280339,-5.204815 -5.678008,6.15115 -6.151099,-5.677957 -8.753582,7.097433 -8.043768,-5.914528 z"
         id="path2641"
         inkscape:connector-curvature="0" />
    </g>
  </g>
</svg>
