<?xml version="1.0" encoding="UTF-8" standalone="no"?>
<svg
   xmlns:dc="http://purl.org/dc/elements/1.1/"
   xmlns:cc="http://creativecommons.org/ns#"
   xmlns:rdf="http://www.w3.org/1999/02/22-rdf-syntax-ns#"
   xmlns:svg="http://www.w3.org/2000/svg"
   xmlns="http://www.w3.org/2000/svg"
   xmlns:sodipodi="http://sodipodi.sourceforge.net/DTD/sodipodi-0.dtd"
   xmlns:inkscape="http://www.inkscape.org/namespaces/inkscape"
   height="915.14844"
   id="svg8"
   version="1.1"
   viewBox="0 0 242.13312 242.13303"
   width="915.1488"
   sodipodi:docname="type-fire.svg"
   inkscape:version="0.92.2 5c3e80d, 2017-08-06">
  <metadata
     id="metadata14">
    <rdf:RDF>
      <cc:Work
         rdf:about="">
        <dc:format>image/svg+xml</dc:format>
        <dc:type
           rdf:resource="http://purl.org/dc/dcmitype/StillImage" />
        <dc:title></dc:title>
      </cc:Work>
    </rdf:RDF>
  </metadata>
  <sodipodi:namedview
     pagecolor="#ffffff"
     bordercolor="#666666"
     borderopacity="1"
     objecttolerance="10"
     gridtolerance="10"
     guidetolerance="10"
     inkscape:pageopacity="0"
     inkscape:pageshadow="2"
     inkscape:window-width="640"
     inkscape:window-height="480"
     id="namedview12"
     showgrid="false"
     fit-margin-top="0"
     fit-margin-left="0"
     fit-margin-right="0"
     fit-margin-bottom="0"
     inkscape:zoom="0.236"
     inkscape:cx="464.72109"
     inkscape:cy="457.6497"
     inkscape:window-x="0"
     inkscape:window-y="0"
     inkscape:window-maximized="0"
     inkscape:current-layer="svg8" />
  <defs
     id="defs2" />
  <g
     id="layer1"
     transform="translate(-9.3342125,-43.661782)">
    <g
       id="g7075"
       transform="translate(42.105993,42.808222)">
      <path
         style="opacity:1;fill:#a02c2c;fill-opacity:1;stroke:#333333;stroke-width:0;stroke-linecap:butt;stroke-linejoin:miter;stroke-miterlimit:4;stroke-dasharray:none;stroke-dashoffset:0;stroke-opacity:1"
         d="M 207.30235,121.92004 A 119.00757,119.00757 0 0 1 88.294803,240.92759 119.00757,119.00757 0 0 1 -30.712795,121.92004 119.00757,119.00757 0 0 1 88.294803,2.9124958 119.00757,119.00757 0 0 1 207.30235,121.92004 Z"
         id="path1538"
         inkscape:connector-curvature="0" />
      <path
         style="fill:#782121;stroke:none;stroke-width:0.26458332px;stroke-linecap:butt;stroke-linejoin:miter;stroke-opacity:1"
         d="M 88.332973,35.644795 51.633132,193.48568 98.552066,240.40461 A 119.00757,119.00757 0 0 0 204.03291,149.07526 l -68.98149,-68.976353 -0.41123,1.855681 z"
         id="path1584"
         inkscape:connector-curvature="0" />
      <path
         style="opacity:1;fill:#800000;fill-opacity:1;stroke:#333333;stroke-width:0;stroke-linecap:butt;stroke-linejoin:miter;stroke-miterlimit:4;stroke-dasharray:none;stroke-dashoffset:0;stroke-opacity:1"
         d="M 88.294803,0.85356091 A 121.06651,121.06651 0 0 0 -32.77178,121.92004 121.06651,121.06651 0 0 0 88.294803,242.98658 121.06651,121.06651 0 0 0 209.36134,121.92004 121.06651,121.06651 0 0 0 88.294803,0.85356091 Z m 0,4.11786969 A 116.94859,116.94859 0 0 1 205.24342,121.92004 116.94859,116.94859 0 0 1 88.294803,238.86866 116.94859,116.94859 0 0 1 -28.65386,121.92004 116.94859,116.94859 0 0 1 88.294803,4.9714306 Z"
         id="path1540"
         inkscape:connector-curvature="0" />
      <path
         style="opacity:1;fill:#ff2a2a;fill-opacity:1;stroke:none;stroke-width:2.64583325;stroke-linecap:round;stroke-linejoin:round;stroke-miterlimit:4;stroke-dasharray:none;stroke-dashoffset:0;stroke-opacity:1"
         d="m 88.100086,35.180148 -0.07461,0.930522 -20.743531,71.45324 -25.937397,-27.465201 -4.924642,75.196661 0.0746,0.005 a 51.874848,51.874848 0 0 0 -0.0746,1.48511 51.874848,51.874848 0 0 0 51.874842,51.87484 51.874848,51.874848 0 0 0 51.874892,-51.87484 51.874848,51.874848 0 0 0 -0.58126,-7.38022 l -4.538,-69.306894 -25.93739,27.465194 -20.743587,-71.453233 -0.07461,-0.930522 -0.09848,0.33592 z"
         id="path1564"
         inkscape:connector-curvature="0" />
      <path
         style="opacity:1;fill:#ff5555;fill-opacity:1;stroke:none;stroke-width:2.64583325;stroke-linecap:round;stroke-linejoin:round;stroke-miterlimit:4;stroke-dasharray:none;stroke-dashoffset:0;stroke-opacity:1"
         d="m 88.145147,75.316248 -0.0572,0.715238 -15.944373,54.921934 -19.93656,-21.1109 -3.785282,57.79928 0.0572,0.004 a 39.873164,39.873164 0 0 0 -0.0572,1.14151 39.873164,39.873164 0 0 0 39.873168,39.87316 39.873164,39.873164 0 0 0 39.87322,-39.87316 39.873164,39.873164 0 0 0 -0.44663,-5.67274 l -3.48811,-53.27216 -19.93656,21.11089 -15.944375,-54.921923 -0.0572,-0.715238 -0.0756,0.258181 z"
         id="path1572"
         inkscape:connector-curvature="0" />
      <path
         style="opacity:1;fill:#ff8080;fill-opacity:1;stroke:none;stroke-width:2.64583325;stroke-linecap:round;stroke-linejoin:round;stroke-miterlimit:4;stroke-dasharray:none;stroke-dashoffset:0;stroke-opacity:1"
         d="m 88.179763,106.12165 -0.04476,0.55001 -12.26085,42.23376 -15.330777,-16.23382 -2.910818,44.44638 0.04476,0.003 a 30.661588,30.661588 0 0 0 -0.04476,0.8778 30.661588,30.661588 0 0 0 30.661602,30.66158 30.661588,30.661588 0 0 0 30.66165,-30.66158 30.661588,30.661588 0 0 0 -0.34368,-4.36221 l -2.68228,-40.96512 -15.33078,16.23381 -12.260844,-42.23376 -0.04476,-0.55 -0.05819,0.19855 z"
         id="path1574"
         inkscape:connector-curvature="0" />
    </g>
  </g>
</svg>
